<svg width="24" height="24" viewBox="0 0 24 24" fill="none" xmlns="http://www.w3.org/2000/svg">
<circle opacity="0.33" cx="12" cy="12" r="11.5" stroke="#00B0FF"/>
<path d="M12.6315 7.0308C12.6315 6.68242 12.349 6.4 12.0007 6.4C11.6523 6.4 11.3699 6.68242 11.3699 7.0308L11.3699 15.4463L8.59598 12.6724C8.34964 12.4261 7.95024 12.4261 7.7039 12.6724C7.45755 12.9188 7.45756 13.3182 7.7039 13.5645L11.5547 17.4152C11.801 17.6616 12.2004 17.6616 12.4467 17.4152L16.2975 13.5645C16.5438 13.3182 16.5438 12.9188 16.2975 12.6724C16.0511 12.4261 15.6517 12.4261 15.4054 12.6724L12.6315 15.4464L12.6315 7.0308Z" fill="#00B0FF" stroke="#00B0FF" stroke-width="0.2"/>
</svg>
