<svg width="24" height="24" viewBox="0 0 24 24" fill="none" xmlns="http://www.w3.org/2000/svg">
<circle cx="12" cy="12" r="11.5" stroke="#9B51E0" stroke-opacity="0.33"/>
<path fill-rule="evenodd" clip-rule="evenodd" d="M12 6.5C11.5858 6.5 11.25 6.83579 11.25 7.25V11.25H7.25C6.83579 11.25 6.5 11.5858 6.5 12C6.5 12.4142 6.83579 12.75 7.25 12.75H11.25V16.75C11.25 17.1642 11.5858 17.5 12 17.5C12.4142 17.5 12.75 17.1642 12.75 16.75V12.75H16.75C17.1642 12.75 17.5 12.4142 17.5 12C17.5 11.5858 17.1642 11.25 16.75 11.25H12.75V7.25C12.75 6.83579 12.4142 6.5 12 6.5Z" fill="#9B51E0"/>
</svg>
