<svg width="48" height="49" viewBox="0 0 48 49" fill="none" xmlns="http://www.w3.org/2000/svg">
<ellipse cx="24.0001" cy="24.6001" rx="24.0001" ry="24" fill="#E3F2FD"/>
<ellipse opacity="0.05" cx="24.0001" cy="24.6001" rx="24.0001" ry="24" fill="url(#paint0_linear_10060_23400)"/>
<path d="M23.4156 12.6573C23.2795 12.6063 23.133 12.589 22.9888 12.607C22.8445 12.625 22.7068 12.6776 22.5873 12.7604C22.4678 12.8432 22.3702 12.9537 22.3027 13.0824C22.2353 13.2112 22.2 13.3543 22.1999 13.4997V28.0527C21.3683 27.3869 20.3389 27.0166 19.2737 27.0002C18.2085 26.9838 17.1681 27.3223 16.3164 27.9622C15.4647 28.6021 14.8501 29.5071 14.5693 30.5348C14.2885 31.5624 14.3576 32.6542 14.7656 33.6383C15.1736 34.6224 15.8974 35.4428 16.8229 35.9703C17.7485 36.4978 18.8232 36.7024 19.8778 36.552C20.9324 36.4015 21.9071 35.9045 22.6481 35.1392C23.3892 34.3739 23.8547 33.3838 23.9712 32.3249C23.9902 32.2516 23.9999 32.1762 24 32.1005V20.7984L32.3848 23.9425C32.5209 23.9935 32.6674 24.0108 32.8116 23.9928C32.9559 23.9748 33.0936 23.9222 33.2131 23.8394C33.3325 23.7566 33.4302 23.6461 33.4976 23.5174C33.5651 23.3886 33.6004 23.2455 33.6005 23.1001V19.1795C33.6007 18.3854 33.3585 17.6101 32.9062 16.9573C32.4539 16.3045 31.8131 15.8054 31.0695 15.5266L23.4156 12.6573V12.6573Z" fill="url(#paint1_linear_10060_23400)"/>
<defs>
<linearGradient id="paint0_linear_10060_23400" x1="24.0001" y1="0.600098" x2="24.0001" y2="48.6001" gradientUnits="userSpaceOnUse">
<stop stop-color="#5856D6"/>
<stop offset="1" stop-color="#5AC8FA"/>
</linearGradient>
<linearGradient id="paint1_linear_10060_23400" x1="33.6005" y1="24.6001" x2="14.3996" y2="24.6001" gradientUnits="userSpaceOnUse">
<stop stop-color="#00B0FF"/>
<stop offset="1" stop-color="#0091EA"/>
</linearGradient>
</defs>
</svg>
