<svg width="14" height="15" viewBox="0 0 14 15" fill="none" xmlns="http://www.w3.org/2000/svg">
<g clip-path="url(#clip0_12624_6261)">
<path fill-rule="evenodd" clip-rule="evenodd" d="M8.71857 5.61003C8.71857 6.56673 7.95757 7.32782 7.00048 7.32782C6.04339 7.32782 5.2824 6.56673 5.2824 5.61003C5.2824 4.65301 6.04371 3.89165 7.00048 3.89165C7.95726 3.89165 8.71857 4.65301 8.71857 5.61003ZM7.00048 8.52782C8.6202 8.52782 9.91857 7.22958 9.91857 5.61003C9.91857 3.99047 8.6202 2.69165 7.00048 2.69165C5.38076 2.69165 4.0824 3.99047 4.0824 5.61003C4.0824 7.22958 5.38076 8.52782 7.00048 8.52782ZM6.99925 10.3112C7.63205 10.311 8.25466 10.4705 8.80935 10.7751C9.36403 11.0796 9.83284 11.5193 10.1723 12.0534C10.3501 12.333 10.7209 12.4156 11.0005 12.2379C11.2802 12.0601 11.3628 11.6893 11.185 11.4097C10.7372 10.7051 10.1187 10.125 9.38689 9.72322C8.6551 9.32141 7.8337 9.11089 6.99885 9.11117C6.164 9.11144 5.34274 9.32251 4.61122 9.7248C3.87969 10.1271 3.26158 10.7076 2.8142 11.4124C2.63663 11.6922 2.71948 12.063 2.99925 12.2405C3.27903 12.4181 3.64978 12.3353 3.82736 12.0555C4.16646 11.5212 4.63498 11.0812 5.18946 10.7763C5.74395 10.4714 6.36645 10.3114 6.99925 10.3112Z" fill="#BEBEBE"/>
</g>
<defs>
<clipPath id="clip0_12624_6261">
<rect width="14" height="14" fill="white" transform="translate(0 0.5)"/>
</clipPath>
</defs>
</svg>
