<svg width="48" height="48" viewBox="0 0 48 48" fill="none" xmlns="http://www.w3.org/2000/svg">
<g clip-path="url(#clip0_10854_35308)">
<rect x="3.375" y="42.791" width="41.25" height="2.75" rx="1.375" fill="#5AC8FA"/>
<path d="M41.1119 42.7902H30.1113V34.1324C30.1113 33.8083 30.2401 33.4974 30.4693 33.2682C30.6986 33.0389 31.0094 32.9102 31.3336 32.9102H41.1119C41.4361 32.9102 41.747 33.0389 41.9762 33.2682C42.2054 33.4974 42.3342 33.8083 42.3342 34.1324V41.5679C42.3342 41.892 42.2054 42.2029 41.9762 42.4322C41.747 42.6614 41.4361 42.7902 41.1119 42.7902Z" fill="#5856D6"/>
<path d="M30.1125 42.7913H17.8896V22.9293C17.8896 22.6051 18.0184 22.2943 18.2476 22.065C18.4769 21.8358 18.7878 21.707 19.1119 21.707H28.8902C29.2144 21.707 29.5253 21.8358 29.7545 22.065C29.9837 22.2943 30.1125 22.6051 30.1125 22.9293V42.7913Z" fill="#FF9500"/>
<path d="M17.8889 42.7912V30.0592C17.8889 29.735 17.7601 29.4241 17.5309 29.1949C17.3017 28.9657 16.9908 28.8369 16.6666 28.8369H6.8883C6.56413 28.8369 6.25324 28.9657 6.02402 29.1949C5.79479 29.4241 5.66602 29.735 5.66602 30.0592V41.5689C5.66602 41.8931 5.79479 42.204 6.02402 42.4332C6.25324 42.6624 6.56413 42.7912 6.8883 42.7912H17.8889Z" fill="#00B0FF"/>
<path d="M21.568 7.67753L23.4197 3.75195C23.4697 3.63973 23.5512 3.5444 23.6542 3.4775C23.7572 3.4106 23.8775 3.375 24.0003 3.375C24.1232 3.375 24.2434 3.4106 24.3464 3.4775C24.4495 3.5444 24.5309 3.63973 24.5809 3.75195L26.4347 7.67753L30.5742 8.31108C31.1059 8.39257 31.3177 9.07705 30.9327 9.46818L27.9381 12.5239L28.645 16.8386C28.7346 17.3927 28.1805 17.8164 27.7038 17.5536L24.0003 15.5165L20.2968 17.5536C19.8221 17.8144 19.266 17.3927 19.3556 16.8386L20.0625 12.5239L17.0679 9.46818C16.6808 9.07705 16.8947 8.39257 17.4244 8.31108L21.568 7.67957V7.67753Z" fill="#FF9500" stroke="#FF9500" stroke-linecap="round" stroke-linejoin="round"/>
<path d="M22.2893 35.0005C21.732 35.0005 21.4533 34.7255 21.4533 34.1755C21.4533 33.6328 21.732 33.3615 22.2893 33.3615H23.2793V29.4345L22.6083 29.8415C22.4176 29.9588 22.238 30.0065 22.0693 29.9845C21.9006 29.9552 21.7576 29.8818 21.6403 29.7645C21.523 29.6472 21.446 29.5042 21.4093 29.3355C21.3726 29.1668 21.3873 28.9982 21.4533 28.8295C21.5193 28.6608 21.6513 28.5178 21.8493 28.4005L23.3673 27.4545C23.6973 27.2492 24.0456 27.1465 24.4123 27.1465C24.691 27.1465 24.9073 27.2198 25.0613 27.3665C25.2153 27.5058 25.2923 27.7112 25.2923 27.9825V33.3615H26.1723C26.7296 33.3615 27.0083 33.6328 27.0083 34.1755C27.0083 34.7255 26.7296 35.0005 26.1723 35.0005H22.2893Z" fill="white"/>
<path d="M10.5526 39.8121C10.3509 39.8121 10.2043 39.7663 10.1126 39.6746C10.0255 39.5784 9.98199 39.4386 9.98199 39.2553C9.98199 39.1269 10.0095 39.0124 10.0645 38.9115C10.1195 38.8107 10.1951 38.7121 10.2914 38.6159L11.4945 37.3578C11.6732 37.1699 11.7993 37.0071 11.8726 36.8696C11.9505 36.7276 11.9895 36.5878 11.9895 36.4503C11.9895 36.1019 11.7672 35.9278 11.3226 35.9278C11.2126 35.9278 11.0934 35.9438 10.9651 35.9759C10.8414 36.0034 10.7107 36.0538 10.5732 36.1271C10.4495 36.1867 10.3372 36.2051 10.2364 36.1821C10.1355 36.1546 10.053 36.1019 9.98886 36.024C9.92469 35.9461 9.88344 35.8567 9.86511 35.7559C9.85136 35.6551 9.8674 35.5565 9.91324 35.4603C9.95907 35.3594 10.0416 35.2769 10.1607 35.2128C10.3716 35.1028 10.5893 35.0226 10.8139 34.9721C11.043 34.9171 11.2722 34.8896 11.5014 34.8896C12.0605 34.8896 12.4868 35.0111 12.7801 35.254C13.078 35.4969 13.227 35.8476 13.227 36.3059C13.227 36.5992 13.1605 36.8788 13.0276 37.1446C12.8947 37.4105 12.6724 37.6969 12.3607 38.004L11.577 38.7878H12.9451C13.2934 38.7878 13.4676 38.9574 13.4676 39.2965C13.4676 39.6403 13.2934 39.8121 12.9451 39.8121H10.5526Z" fill="white" fill-opacity="0.7"/>
<mask id="mask0_10854_35308" style="mask-type:alpha" maskUnits="userSpaceOnUse" x="24" y="0" width="21" height="44">
<rect x="24" y="0.625" width="20.625" height="42.625" fill="#D9D9D9"/>
</mask>
<g mask="url(#mask0_10854_35308)">
<path d="M41.1119 42.7902H30.1113V34.1324C30.1113 33.8083 30.2401 33.4974 30.4693 33.2682C30.6986 33.0389 31.0094 32.9102 31.3336 32.9102H41.1119C41.4361 32.9102 41.747 33.0389 41.9762 33.2682C42.2054 33.4974 42.3342 33.8083 42.3342 34.1324V41.5679C42.3342 41.892 42.2054 42.2029 41.9762 42.4322C41.747 42.6614 41.4361 42.7902 41.1119 42.7902Z" fill="#0277BD"/>
<path d="M30.1115 42.7913H17.8887V22.9293C17.8887 22.6051 18.0174 22.2943 18.2467 22.065C18.4759 21.8358 18.7868 21.707 19.111 21.707H28.8893C29.2134 21.707 29.5243 21.8358 29.7535 22.065C29.9828 22.2943 30.1115 22.6051 30.1115 22.9293V42.7913Z" fill="#FF9500"/>
<path d="M30.1115 42.7913H17.8887V22.9293C17.8887 22.6051 18.0174 22.2943 18.2467 22.065C18.4759 21.8358 18.7868 21.707 19.111 21.707H28.8893C29.2134 21.707 29.5243 21.8358 29.7535 22.065C29.9828 22.2943 30.1115 22.6051 30.1115 22.9293V42.7913Z" fill="black" fill-opacity="0.15"/>
<path d="M21.568 7.67753L23.4197 3.75195C23.4697 3.63973 23.5512 3.5444 23.6542 3.4775C23.7572 3.4106 23.8775 3.375 24.0003 3.375C24.1232 3.375 24.2434 3.4106 24.3464 3.4775C24.4495 3.5444 24.5309 3.63973 24.5809 3.75195L26.4347 7.67753L30.5742 8.31108C31.1059 8.39257 31.3177 9.07705 30.9327 9.46818L27.9381 12.5239L28.645 16.8386C28.7346 17.3927 28.1805 17.8164 27.7038 17.5536L24.0003 15.5165L20.2968 17.5536C19.8221 17.8144 19.266 17.3927 19.3556 16.8386L20.0625 12.5239L17.0679 9.46818C16.6808 9.07705 16.8947 8.39257 17.4244 8.31108L21.568 7.67957V7.67753Z" fill="#FF9500"/>
<path d="M21.568 7.67753L23.4197 3.75195C23.4697 3.63973 23.5512 3.5444 23.6542 3.4775C23.7572 3.4106 23.8775 3.375 24.0003 3.375C24.1232 3.375 24.2434 3.4106 24.3464 3.4775C24.4495 3.5444 24.5309 3.63973 24.5809 3.75195L26.4347 7.67753L30.5742 8.31108C31.1059 8.39257 31.3177 9.07705 30.9327 9.46818L27.9381 12.5239L28.645 16.8386C28.7346 17.3927 28.1805 17.8164 27.7038 17.5536L24.0003 15.5165L20.2968 17.5536C19.8221 17.8144 19.266 17.3927 19.3556 16.8386L20.0625 12.5239L17.0679 9.46818C16.6808 9.07705 16.8947 8.39257 17.4244 8.31108L21.568 7.67957V7.67753Z" fill="black" fill-opacity="0.15"/>
<path d="M21.568 7.67753L23.4197 3.75195C23.4697 3.63973 23.5512 3.5444 23.6542 3.4775C23.7572 3.4106 23.8775 3.375 24.0003 3.375C24.1232 3.375 24.2434 3.4106 24.3464 3.4775C24.4495 3.5444 24.5309 3.63973 24.5809 3.75195L26.4347 7.67753L30.5742 8.31108C31.1059 8.39257 31.3177 9.07705 30.9327 9.46818L27.9381 12.5239L28.645 16.8386C28.7346 17.3927 28.1805 17.8164 27.7038 17.5536L24.0003 15.5165L20.2968 17.5536C19.8221 17.8144 19.266 17.3927 19.3556 16.8386L20.0625 12.5239L17.0679 9.46818C16.6808 9.07705 16.8947 8.39257 17.4244 8.31108L21.568 7.67957V7.67753Z" stroke="#FF9500" stroke-linecap="round" stroke-linejoin="round"/>
<path d="M21.568 7.67753L23.4197 3.75195C23.4697 3.63973 23.5512 3.5444 23.6542 3.4775C23.7572 3.4106 23.8775 3.375 24.0003 3.375C24.1232 3.375 24.2434 3.4106 24.3464 3.4775C24.4495 3.5444 24.5309 3.63973 24.5809 3.75195L26.4347 7.67753L30.5742 8.31108C31.1059 8.39257 31.3177 9.07705 30.9327 9.46818L27.9381 12.5239L28.645 16.8386C28.7346 17.3927 28.1805 17.8164 27.7038 17.5536L24.0003 15.5165L20.2968 17.5536C19.8221 17.8144 19.266 17.3927 19.3556 16.8386L20.0625 12.5239L17.0679 9.46818C16.6808 9.07705 16.8947 8.39257 17.4244 8.31108L21.568 7.67957V7.67753Z" stroke="black" stroke-opacity="0.15" stroke-linecap="round" stroke-linejoin="round"/>
<path d="M35.847 39.8725C35.6563 39.8725 35.4675 39.8542 35.2805 39.8175C35.0972 39.7809 34.9377 39.7295 34.802 39.6635C34.6883 39.6085 34.6077 39.5407 34.56 39.46C34.5123 39.3794 34.4922 39.2969 34.4995 39.2125C34.5068 39.1282 34.5362 39.053 34.5875 38.987C34.6425 38.921 34.7122 38.877 34.7965 38.855C34.8845 38.8294 34.9835 38.8404 35.0935 38.888C35.2292 38.9467 35.3538 38.987 35.4675 39.009C35.5812 39.031 35.6948 39.042 35.8085 39.042C36.2045 39.042 36.4025 38.9064 36.4025 38.635C36.4025 38.3857 36.2265 38.261 35.8745 38.261H35.5775C35.4382 38.261 35.3318 38.2262 35.2585 38.1565C35.1852 38.0869 35.1485 37.9879 35.1485 37.8595C35.1485 37.7312 35.1852 37.6322 35.2585 37.5625C35.3318 37.4929 35.4382 37.458 35.5775 37.458H35.7755C35.9332 37.458 36.056 37.425 36.144 37.359C36.2357 37.293 36.2815 37.1977 36.2815 37.073C36.2815 36.8274 36.111 36.7045 35.77 36.7045C35.6673 36.7045 35.5628 36.7155 35.4565 36.7375C35.3502 36.7595 35.2365 36.798 35.1155 36.853C35.0202 36.8934 34.9322 36.9025 34.8515 36.8805C34.7745 36.8585 34.7103 36.8164 34.659 36.754C34.6077 36.6917 34.5765 36.6202 34.5655 36.5395C34.5545 36.4552 34.5692 36.3764 34.6095 36.303C34.6498 36.226 34.7195 36.1619 34.8185 36.1105C35.1338 35.9529 35.484 35.874 35.869 35.874C36.3017 35.874 36.639 35.9694 36.881 36.16C37.123 36.347 37.244 36.6074 37.244 36.941C37.244 37.139 37.1945 37.3132 37.0955 37.4635C36.9965 37.6139 36.859 37.7239 36.683 37.7935C36.8993 37.8559 37.0662 37.9695 37.1835 38.1345C37.3045 38.2995 37.365 38.4994 37.365 38.734C37.365 39.086 37.2293 39.3647 36.958 39.57C36.6903 39.7717 36.32 39.8725 35.847 39.8725Z" fill="white" fill-opacity="0.7"/>
<path d="M22.2893 35.0005C21.732 35.0005 21.4533 34.7255 21.4533 34.1755C21.4533 33.6328 21.732 33.3615 22.2893 33.3615H23.2793V29.4345L22.6083 29.8415C22.4176 29.9588 22.238 30.0065 22.0693 29.9845C21.9006 29.9552 21.7576 29.8818 21.6403 29.7645C21.523 29.6472 21.446 29.5042 21.4093 29.3355C21.3726 29.1668 21.3873 28.9982 21.4533 28.8295C21.5193 28.6608 21.6513 28.5178 21.8493 28.4005L23.3673 27.4545C23.6973 27.2492 24.0456 27.1465 24.4123 27.1465C24.691 27.1465 24.9073 27.2198 25.0613 27.3665C25.2153 27.5058 25.2923 27.7112 25.2923 27.9825V33.3615H26.1723C26.7296 33.3615 27.0083 33.6328 27.0083 34.1755C27.0083 34.7255 26.7296 35.0005 26.1723 35.0005H22.2893Z" fill="white"/>
<path d="M22.2893 35.0005C21.732 35.0005 21.4533 34.7255 21.4533 34.1755C21.4533 33.6328 21.732 33.3615 22.2893 33.3615H23.2793V29.4345L22.6083 29.8415C22.4176 29.9588 22.238 30.0065 22.0693 29.9845C21.9006 29.9552 21.7576 29.8818 21.6403 29.7645C21.523 29.6472 21.446 29.5042 21.4093 29.3355C21.3726 29.1668 21.3873 28.9982 21.4533 28.8295C21.5193 28.6608 21.6513 28.5178 21.8493 28.4005L23.3673 27.4545C23.6973 27.2492 24.0456 27.1465 24.4123 27.1465C24.691 27.1465 24.9073 27.2198 25.0613 27.3665C25.2153 27.5058 25.2923 27.7112 25.2923 27.9825V33.3615H26.1723C26.7296 33.3615 27.0083 33.6328 27.0083 34.1755C27.0083 34.7255 26.7296 35.0005 26.1723 35.0005H22.2893Z" fill="black" fill-opacity="0.1"/>
</g>
</g>
<defs>
<clipPath id="clip0_10854_35308">
<rect width="44" height="44" fill="white" transform="translate(2 2)"/>
</clipPath>
</defs>
</svg>
