<svg width="24" height="24" viewBox="0 0 24 24" fill="none" xmlns="http://www.w3.org/2000/svg">
<circle cx="12" cy="12" r="11.5" stroke="#5273EA" stroke-opacity="0.33"/>
<path d="M15.5335 8.46649C15.9984 8.93088 16.3672 9.48235 16.6188 10.0894C16.8705 10.6964 17 11.3471 17 12.0042C17 12.6613 16.8705 13.3119 16.6188 13.919C16.3672 14.526 15.9984 15.0774 15.5335 15.5418M8.4665 15.5335C8.0016 15.0691 7.63279 14.5176 7.38115 13.9106C7.12952 13.3036 7 12.6529 7 11.9958C7 11.3387 7.12952 10.6881 7.38115 10.081C7.63279 9.47402 8.0016 8.92255 8.4665 8.45816M13.6667 12C13.6667 12.9206 12.9205 13.6668 12 13.6668C11.0795 13.6668 10.3333 12.9206 10.3333 12C10.3333 11.0795 11.0795 10.3333 12 10.3333C12.9205 10.3333 13.6667 11.0795 13.6667 12Z" stroke="#5273EA" stroke-width="1.5" stroke-linecap="round" stroke-linejoin="round"/>
</svg>
