<svg width="37" height="36" viewBox="0 0 37 36" fill="none" xmlns="http://www.w3.org/2000/svg">
<g filter="url(#filter0_b_10492_24359)">
<circle cx="18.8333" cy="18" r="18" fill="#00B0FF" fill-opacity="0.33"/>
</g>
<path fill-rule="evenodd" clip-rule="evenodd" d="M15.6371 14.1439C13.7194 14.1439 12.1287 15.5438 11.831 17.3774C11.7757 17.7181 11.5012 17.9999 11.1561 17.9999C10.8109 17.9999 10.527 17.7187 10.5688 17.3761C10.8764 14.8504 13.0283 12.8939 15.6371 12.8939H18.0427C18.3879 12.8939 18.6677 13.1737 18.6677 13.5189C18.6677 13.8641 18.3879 14.1439 18.0427 14.1439H15.6371ZM22.0292 21.8559C23.9468 21.8559 25.5376 20.456 25.8352 18.6224C25.8905 18.2817 26.165 17.9999 26.5102 17.9999C26.8553 17.9999 27.1392 18.2811 27.0974 18.6237C26.7898 21.1494 24.6379 23.1059 22.0292 23.1059H15.5599L16.7362 24.2822C16.9803 24.5263 16.9803 24.922 16.7362 25.1661C16.4922 25.4102 16.0964 25.4102 15.8524 25.1661L13.6399 22.9536C13.3958 22.7095 13.3958 22.3138 13.6399 22.0697L15.8524 19.8572C16.0964 19.6132 16.4922 19.6132 16.7362 19.8572C16.9803 20.1013 16.9803 20.497 16.7362 20.7411L15.6215 21.8559H22.0292Z" fill="white"/>
<path fill-rule="evenodd" clip-rule="evenodd" d="M25.917 14.0004C25.917 15.4745 24.722 16.6695 23.2479 16.6695C21.7738 16.6695 20.5789 15.4745 20.5789 14.0004C20.5789 12.5264 21.7738 11.3314 23.2479 11.3314C24.722 11.3314 25.917 12.5264 25.917 14.0004ZM27.167 14.0004C27.167 16.1649 25.4123 17.9195 23.2479 17.9195C21.0835 17.9195 19.3289 16.1649 19.3289 14.0004C19.3289 11.836 21.0835 10.0814 23.2479 10.0814C25.4123 10.0814 27.167 11.836 27.167 14.0004ZM23.0638 15.9599H23.8921V12.0408H23.2113L21.9487 13.0461L22.3481 13.5446L22.7984 13.1828C22.8521 13.1399 22.9477 13.0496 23.0853 12.912L23.0719 13.3195L23.0638 13.6921V15.9599Z" fill="white"/>
<defs>
<filter id="filter0_b_10492_24359" x="-39.1667" y="-40" width="116" height="116" filterUnits="userSpaceOnUse" color-interpolation-filters="sRGB">
<feFlood flood-opacity="0" result="BackgroundImageFix"/>
<feGaussianBlur in="BackgroundImageFix" stdDeviation="20"/>
<feComposite in2="SourceAlpha" operator="in" result="effect1_backgroundBlur_10492_24359"/>
<feBlend mode="normal" in="SourceGraphic" in2="effect1_backgroundBlur_10492_24359" result="shape"/>
</filter>
</defs>
</svg>
