<svg width="16" height="17" viewBox="0 0 16 17" fill="none" xmlns="http://www.w3.org/2000/svg">
<g opacity="0.9">
<path d="M11.55 8.34027C11.75 8.45574 11.75 8.74441 11.55 8.85988L6.45 11.8044C6.25 11.9198 6 11.7755 6 11.5446L6 5.6556C6 5.42466 6.25 5.28032 6.45 5.39579L11.55 8.34027Z" fill="#686A6F"/>
<path d="M8 1.6001C11.866 1.6001 15 4.73411 15 8.6001C15 12.4661 11.866 15.6001 8 15.6001C4.134 15.6001 0.999998 12.4661 1 8.6001C1 4.7341 4.13401 1.6001 8 1.6001ZM8 2.6001C4.68629 2.6001 2 5.28639 2 8.6001C2 11.9138 4.68629 14.6001 8 14.6001C11.3137 14.6001 14 11.9138 14 8.6001C14 5.28639 11.3137 2.6001 8 2.6001Z" fill="#686A6F"/>
</g>
</svg>
