<svg width="24" height="24" viewBox="0 0 24 24" fill="none" xmlns="http://www.w3.org/2000/svg">
<path fill-rule="evenodd" clip-rule="evenodd" d="M4.95526 2H9.04616C9.42321 2 9.72798 2.40636 9.72798 2.90909V21.0909C9.72798 21.5936 9.42321 22 9.04616 22H4.95526C4.57821 22 4.27344 21.5936 4.27344 21.0909V2.90909C4.27344 2.40636 4.57821 2 4.95526 2ZM14.9551 2H19.046C19.4231 2 19.7279 2.40636 19.7279 2.90909V21.0909C19.7279 21.5936 19.4231 22 19.046 22H14.9551C14.5781 22 14.2733 21.5936 14.2733 21.0909V2.90909C14.2733 2.40636 14.5781 2 14.9551 2Z" fill="white"/>
</svg>
