<svg width="24" height="24" viewBox="0 0 24 24" fill="none" xmlns="http://www.w3.org/2000/svg">
<path fill-rule="evenodd" clip-rule="evenodd" d="M2.98779 5.25C2.57358 5.25 2.23779 5.58579 2.23779 6C2.23779 6.41421 2.57358 6.75 2.98779 6.75H16.9878C17.402 6.75 17.7378 6.41421 17.7378 6C17.7378 5.58579 17.402 5.25 16.9878 5.25H2.98779ZM2.98779 10.5C2.57358 10.5 2.23779 10.8358 2.23779 11.25C2.23779 11.6642 2.57358 12 2.98779 12H10.9878C11.402 12 11.7378 11.6642 11.7378 11.25C11.7378 10.8358 11.402 10.5 10.9878 10.5H2.98779ZM2.23779 17.25C2.23779 16.8358 2.57358 16.5 2.98779 16.5H10.9878C11.402 16.5 11.7378 16.8358 11.7378 17.25C11.7378 17.6642 11.402 18 10.9878 18H2.98779C2.57358 18 2.23779 17.6642 2.23779 17.25ZM15.4097 9.864L21.4097 13.614C21.5176 13.6814 21.6065 13.7752 21.6682 13.8864C21.7299 13.9977 21.7622 14.1228 21.7622 14.25C21.7622 14.3772 21.7299 14.5023 21.6682 14.6136C21.6065 14.7248 21.5176 14.8186 21.4097 14.886L15.4097 18.636C15.2962 18.707 15.1657 18.7462 15.0319 18.7497C14.8981 18.7533 14.7657 18.7209 14.6486 18.656C14.5315 18.5911 14.4339 18.496 14.366 18.3807C14.298 18.2653 14.2622 18.1339 14.2622 18V10.5C14.2622 10.3661 14.298 10.2347 14.366 10.1193C14.4339 10.004 14.5315 9.90892 14.6486 9.84402C14.7657 9.77912 14.8981 9.74674 15.0319 9.75026C15.1657 9.75377 15.2962 9.79305 15.4097 9.864Z" fill="#686A6F"/>
</svg>
