<svg width="360" height="450" viewBox="0 0 360 450" fill="none" xmlns="http://www.w3.org/2000/svg">
<g clip-path="url(#clip0_14418_8113)">
<mask id="mask0_14418_8113" style="mask-type:alpha" maskUnits="userSpaceOnUse" x="0" y="0" width="360" height="360">
<rect width="360" height="360" fill="url(#paint0_linear_14418_8113)"/>
</mask>
<g mask="url(#mask0_14418_8113)">
<rect width="360" height="360" fill="#00B0FF"/>
<path d="M70.1455 108.226H30.8573L67.3392 93.6131L65.8334 89.7801L28.7697 104.633L56.9696 76.3647L54.0606 73.4557L26.2714 101.245L41.7403 65.1395L37.9758 63.4968L22.2331 100.184V60.2798H18.1263V99.5679L3.47884 63.0861L-0.354153 64.5919L14.4987 101.69L-13.7696 73.4557L-16.6786 76.3647L11.1106 104.154L-24.9948 88.685L-26.6375 92.4495L10.0497 108.192H-29.8545V112.299H9.43367L-27.0482 126.946L-25.5424 130.779L11.5555 115.927L-16.6786 144.161L-13.7696 147.07L14.0196 119.28L-1.44929 155.42L2.31525 157.063L18.0579 120.376V160.28H22.1647V120.992L36.7779 157.439L40.6109 155.933L25.7581 118.87L53.9922 147.104L56.9012 144.195L29.1804 116.406L65.2858 131.875L66.9285 128.11L30.2413 112.367H70.1455V108.226Z" fill="#BEA6FF"/>
<circle cx="42" cy="326" r="110" fill="#A0DAA9"/>
</g>
<g clip-path="url(#clip1_14418_8113)">
<path d="M270.649 225.547C270.614 229.904 271.016 234.279 272.919 237.861C274.643 241.118 277.14 243.909 279.589 246.592C282.001 249.277 284.495 252.03 286.276 255.301C288.536 259.495 289.473 264.146 290.397 268.646C291.102 272.162 291.82 275.829 293.212 279.19C293.643 280.212 294.073 281.235 294.506 282.294C295.604 284.886 296.688 287.537 297.641 290.217C297.087 289.717 296.532 289.216 295.977 288.716C295.232 286.699 294.375 284.691 293.542 282.739C293.108 281.679 292.658 280.639 292.228 279.616C290.809 276.163 290.07 272.48 289.358 268.888C288.478 264.46 287.548 259.885 285.359 255.855C283.646 252.711 281.193 249.991 278.805 247.36C276.332 244.624 273.773 241.781 271.982 238.398C271.439 237.385 271.019 236.267 270.675 235.143C270.467 231.905 270.454 228.726 270.649 225.547Z" fill="white" fill-opacity="0.3"/>
<path d="M342.561 176.815C347.877 181.101 350.938 188.405 350.765 196.371C350.684 200.202 349.84 203.986 349.043 207.634C348.811 208.657 348.599 209.698 348.387 210.739C346.144 221.668 345.7 232.819 347.028 243.891C347.625 248.987 348.877 251.396 350.608 254.727C351.313 256.085 352.114 257.662 352.985 259.612C353.903 261.67 354.9 263.76 355.853 265.778C357.426 269.048 359.067 272.444 360.373 275.907C363.877 285.009 365.53 294.821 367.1 304.32C367.31 305.645 367.541 306.988 367.772 308.331C367.42 308.418 367.068 308.506 366.713 308.556C366.478 307.175 366.247 305.833 366.016 304.49C364.454 295.067 362.824 285.31 359.368 276.317C358.048 272.912 356.427 269.532 354.854 266.262C353.901 264.244 352.867 262.159 351.965 260.079C351.115 258.147 350.318 256.608 349.612 255.25C347.834 251.808 346.576 249.325 345.925 244.044C344.587 232.86 345.059 221.593 347.292 210.551C347.503 209.51 347.736 208.486 347.965 207.425C348.765 203.815 349.574 200.072 349.665 196.354C349.848 188.709 346.928 181.733 341.858 177.652C341.064 177.021 340.202 176.472 339.357 175.902L338.655 175.453C333.473 172.044 328.772 167.856 324.271 163.801C321.929 161.696 319.505 159.523 317.02 157.507C317.365 157.344 317.728 157.161 318.114 157.032C320.48 158.983 322.761 161.037 324.998 163.018C329.495 167.035 334.156 171.189 339.28 174.584L339.982 175.034C340.844 175.583 341.726 176.149 342.561 176.815Z" fill="white" fill-opacity="0.3"/>
<path d="M280.088 192.143C280.637 197.547 280.616 202.716 279.981 207.58C279.665 210.239 278.98 212.798 278.309 215.298C276.742 221.19 275.242 226.754 278.57 232.994C280.27 236.196 282.925 238.841 285.494 241.38C287.733 243.607 290.034 245.886 291.766 248.593C293.784 251.748 294.987 255.334 296.143 258.81C297.194 261.956 298.44 265.159 299.76 268.565C303.471 278.084 307.282 287.897 307.154 297.468C306.793 297.235 306.432 297.001 306.088 296.747C306.044 287.589 302.357 278.125 298.772 268.954C297.452 265.549 296.186 262.328 295.131 259.145C293.982 255.744 292.823 252.229 290.87 249.163C289.185 246.566 286.925 244.322 284.747 242.146C282.116 239.556 279.4 236.859 277.612 233.513C274.118 226.891 275.66 221.152 277.265 215.049C277.922 212.606 278.59 210.068 278.913 207.484C279.446 203.197 279.526 198.704 279.15 193.966C279.49 193.312 279.779 192.719 280.088 192.143Z" fill="white" fill-opacity="0.3"/>
<path d="M337.563 183.518C341.179 190.452 342.701 197.89 342.181 206.227C341.878 210.986 341.261 215.621 340.631 220.106C339.508 228.25 338.44 235.953 339.279 244.455C339.968 251.475 343.437 256.509 347.1 261.811C348.205 263.399 349.333 265.042 350.413 266.784C355.735 275.253 358.153 285.15 359.657 292.818C360.026 294.66 360.378 296.522 360.751 298.401C361.443 301.975 362.14 305.624 362.91 309.229C362.555 309.28 362.2 309.329 361.844 309.38C361.075 305.775 360.38 302.163 359.689 298.589C359.337 296.726 358.984 294.865 358.615 293.022C357.118 285.43 354.75 275.68 349.517 267.354C348.44 265.65 347.312 264.007 346.228 262.436C342.477 256.991 338.942 251.867 338.23 244.585C337.398 235.949 338.443 228.192 339.597 219.97C340.21 215.505 340.851 210.925 341.136 206.186C341.635 198.041 340.167 190.786 336.642 184.034C332.843 176.737 327.47 173.308 320.675 168.999L319.173 168.052C315.925 165.989 312.795 163.745 309.781 161.32C310.103 161.103 310.428 160.923 310.753 160.743C313.641 163.027 316.628 165.151 319.719 167.152L321.221 168.1C328.155 172.491 333.627 175.968 337.563 183.518Z" fill="white" fill-opacity="0.3"/>
<path d="M278.725 258.782C280.188 261.437 280.268 264.951 280.229 268.4C279.849 267.733 279.486 267.045 279.16 266.354C279.121 263.745 278.864 261.231 277.805 259.298C277.129 258.07 276.047 257.161 274.889 256.26C274.686 255.672 274.48 255.046 274.294 254.438C274.519 254.626 274.781 254.811 275.006 255C276.406 256.07 277.846 257.174 278.725 258.782Z" fill="white" fill-opacity="0.3"/>
<path d="M355.266 173.167C361.202 178.705 363.952 187.418 362.262 195.365C361.755 197.795 360.88 200.124 359.998 202.378C359.75 203.005 359.522 203.65 359.274 204.278C353.988 218.711 352.892 234.537 356.086 250.064C357.498 256.888 360.463 263.519 363.313 269.914C365.079 273.867 366.892 277.931 368.329 282.026C370.595 288.454 371.176 295.312 371.717 301.928C371.868 303.656 372.006 305.443 372.177 307.189C371.825 307.276 371.494 307.381 371.142 307.468C370.943 305.63 370.786 303.827 370.627 302.023C370.073 295.465 369.519 288.699 367.3 282.381C365.886 278.34 364.073 274.278 362.328 270.342C359.454 263.891 356.465 257.206 355.027 250.289C351.779 234.578 352.895 218.56 358.279 203.929C358.506 203.285 358.754 202.657 359.002 202.03C359.849 199.816 360.707 197.508 361.204 195.174C362.793 187.595 360.172 179.268 354.501 173.953C351.411 171.081 347.603 169.104 343.898 167.214C342.588 166.533 341.221 165.839 339.909 165.121C337.203 163.616 334.771 161.784 332.363 160.007C330.865 158.889 329.325 157.736 327.758 156.7C326.634 155.965 325.584 155.224 324.535 154.483C324.959 154.351 325.383 154.22 325.786 154.071C326.614 154.661 327.459 155.231 328.341 155.797C329.95 156.868 331.489 158.02 332.988 159.139C335.355 160.881 337.787 162.713 340.394 164.17C341.689 164.908 343.036 165.585 344.362 166.246C348.166 168.184 352.052 170.192 355.266 173.167Z" fill="white" fill-opacity="0.3"/>
<path d="M373.916 186.414C374.207 192.124 372.551 198.289 369.147 204.171C368.556 205.207 367.993 206.127 367.447 207.027C364.881 211.245 363.031 214.322 362.677 220.013C362.295 226.029 362.321 232.178 362.775 238.234C363.725 251.251 366.96 265.942 371.916 279.535C372.644 281.573 373.487 283.638 374.286 285.632C376.003 289.892 377.791 294.317 378.816 298.903C379.248 300.796 379.569 302.737 379.794 304.666C379.466 304.809 379.117 304.934 378.768 305.059C378.536 303.054 378.229 301.056 377.795 299.124C376.759 294.634 375.011 290.244 373.318 286.038C372.519 284.045 371.676 281.98 370.928 279.924C365.962 266.219 362.683 251.456 361.723 238.326C361.283 232.213 361.253 226.025 361.632 219.972C362.001 214.015 363.903 210.877 366.551 206.518C367.08 205.639 367.66 204.699 368.234 203.683C371.537 197.961 373.139 192.028 372.847 186.526C372.52 180.194 369.613 174.448 365.042 171.1C362.372 169.137 359.148 168 356.021 166.872C355.434 166.659 354.848 166.445 354.261 166.231C345.578 163.053 337.344 158.511 329.905 152.896C330.35 152.782 330.773 152.65 331.238 152.552C338.425 157.887 346.336 162.192 354.647 165.232C355.234 165.446 355.82 165.659 356.407 165.873C359.592 167.014 362.914 168.2 365.704 170.228C370.496 173.727 373.6 179.778 373.916 186.414Z" fill="white" fill-opacity="0.3"/>
<path d="M378.612 171.729C381.146 175.805 381.409 180.761 381.644 185.17C382.007 191.707 382.023 197.952 378.504 202.728C377.574 204.001 376.437 205.066 375.317 206.111C374.303 207.07 373.254 208.071 372.387 209.188C367.955 215.008 369.026 221.408 370.188 228.197C370.369 229.184 370.53 230.155 370.673 231.145C370.954 233.052 371.309 234.951 371.627 236.854C372.581 242.355 373.573 248.061 373.53 253.63L373.539 253.951C373.486 259.616 373.431 265.489 374.437 271.137C375.248 275.647 377.192 279.471 379.23 283.514C379.732 284.493 380.214 285.454 380.699 286.452C383.12 291.409 384.772 296.659 386.041 301.867C385.717 302.047 385.388 302.189 385.043 302.353C383.79 297.123 382.138 291.873 379.737 286.934C379.273 285.952 378.771 284.974 378.29 284.013C376.207 279.898 374.219 276.002 373.395 271.342C372.362 265.602 372.413 259.691 372.481 253.968L372.471 253.647C372.524 248.191 371.536 242.522 370.585 237.059C370.246 235.139 369.908 233.219 369.627 231.313C369.467 230.342 369.324 229.351 369.143 228.364C368.008 221.667 366.833 214.728 371.573 208.54C372.471 207.344 373.574 206.32 374.623 205.32C375.688 204.299 376.808 203.254 377.669 202.062C380.987 197.57 380.949 191.515 380.622 185.183C380.401 180.924 380.131 176.102 377.75 172.259C374.575 167.123 368.47 164.856 362.56 162.647L361.346 162.185C353.359 159.173 345.689 155.453 338.431 151.033C338.991 150.947 339.551 150.86 340.094 150.793C346.964 154.887 354.216 158.36 361.732 161.186L362.926 161.63C368.941 163.963 375.22 166.272 378.612 171.729Z" fill="white" fill-opacity="0.3"/>
<path d="M308.857 184.95C313.236 190.435 316.965 195.618 317.925 203.56C318.645 209.63 318.74 215.907 318.818 221.995C318.924 229.918 319.033 238.086 320.602 245.843C322.398 254.696 326.676 262.916 330.839 270.9C332.223 273.524 333.655 276.257 334.954 278.983C339.596 288.553 342.529 298.708 345.395 308.528C345.533 309.027 345.692 309.543 345.833 310.08C345.472 310.055 345.072 310.033 344.71 310.008C344.582 309.621 344.491 309.232 344.362 308.845C341.52 299.08 338.611 288.98 333.993 279.465C332.677 276.759 331.266 274.043 329.881 271.42C325.695 263.38 321.373 255.089 319.525 246.088C317.95 238.257 317.835 230.013 317.725 222.053C317.65 216.002 317.555 209.726 316.804 203.734C315.867 196.054 312.244 190.995 307.974 185.671C305.488 182.576 300.515 177.881 297.709 178.486C297.245 178.583 296.868 178.824 296.525 179.233C296.166 179.662 295.88 180.293 295.648 181.108C295.295 182.483 295.546 184.051 295.74 185.397L298.882 205.302C299.356 208.346 299.325 211.453 299.322 214.444C299.285 217.477 299.274 220.601 299.766 223.625C300.839 230.27 302.919 236.297 306.025 241.515C311.271 250.407 318.515 263.971 320.889 278.983C321.828 284.958 321.988 291.116 322.166 297.044C322.23 299.291 322.274 301.521 322.335 303.731C322.357 304.202 322.359 304.656 322.361 305.11C321.989 304.973 321.638 304.852 321.283 304.694C321.274 304.372 321.265 304.051 321.255 303.731C321.195 301.521 321.151 299.291 321.107 297.061C320.95 291.15 320.755 285.033 319.84 279.113C317.5 264.268 310.324 250.831 305.085 242.014C301.948 236.666 299.783 230.532 298.696 223.737C298.195 220.6 298.24 217.436 298.257 214.386C298.281 211.412 298.298 208.363 297.85 205.411L294.708 185.506C294.467 184.051 294.207 182.37 294.615 180.763C295.127 178.825 296.087 177.681 297.481 177.389C301.978 176.428 308.792 184.861 308.857 184.95Z" fill="white" fill-opacity="0.3"/>
<path d="M289.213 178.737C291.797 189.017 293.233 199.587 293.443 210.207C293.472 211.833 293.466 213.499 293.429 215.244C293.361 221.175 293.272 227.297 295.3 232.515C296.546 235.719 298.762 238.762 300.951 241.713C302.501 243.849 304.132 246.053 305.391 248.328C308.435 253.911 311.021 259.667 313.04 265.434C316.016 273.92 317.407 283.755 317.137 293.869C317.052 296.791 316.932 299.755 316.81 302.681C316.455 302.522 316.118 302.344 315.763 302.185C315.882 299.43 315.977 296.62 316.075 293.848C316.375 283.864 314.977 274.162 312.049 265.786C310.053 260.073 307.512 254.39 304.471 248.844C303.256 246.641 301.665 244.47 300.115 242.335C297.903 239.329 295.625 236.235 294.349 232.901C292.247 227.482 292.326 221.246 292.405 215.22C292.424 213.496 292.451 211.846 292.422 210.221C292.204 199.942 290.856 189.724 288.394 179.755C288.63 179.432 288.922 179.084 289.213 178.737Z" fill="white" fill-opacity="0.3"/>
<path d="M352.239 310.163C351.132 303.35 349.4 294.794 345.868 286.679C343.267 280.736 340.041 275.244 336.907 269.934C330.287 258.739 324.06 248.152 324.012 234.187C323.997 230.553 324.218 226.805 324.454 222.79C325.266 208.919 326.13 194.57 317.094 183.889C314.223 180.505 310.829 177.622 307.557 174.842C305.347 172.953 303.038 171.016 300.945 168.946C300.677 168.686 300.404 168.388 300.108 168.035C299.845 168.266 299.561 168.48 299.297 168.712C299.613 169.082 299.909 169.434 300.198 169.712C302.332 171.816 304.624 173.773 306.871 175.659C310.123 178.422 313.497 181.288 316.286 184.603C325.067 194.966 324.22 209.086 323.409 222.749C323.173 226.763 322.935 230.532 322.971 234.183C323.025 248.433 329.336 259.125 336.007 270.467C339.138 275.74 342.343 281.214 344.922 287.103C348.378 295.016 350.097 303.422 351.181 310.18L352.239 310.163Z" fill="white" fill-opacity="0.3"/>
<path d="M284.984 184.275C286.289 190.105 287.198 196.159 287.651 202.423C287.949 206.258 287.741 209.949 287.559 213.486C287.129 221.342 286.718 228.76 291.735 236.556C293.203 238.832 294.889 241.012 296.514 243.142C298.306 245.446 300.141 247.822 301.707 250.355C311.04 265.287 312.777 282.759 311.884 300.253C311.547 300.075 311.189 299.879 310.848 299.663C311.657 282.516 309.899 265.444 300.807 250.887C299.265 248.41 297.45 246.051 295.661 243.785C294.016 241.638 292.309 239.44 290.801 237.13C285.607 229.047 286.005 221.478 286.456 213.431C286.659 209.911 286.852 206.279 286.561 202.518C286.124 196.65 285.323 190.965 284.123 185.467C284.428 185.062 284.696 184.66 284.984 184.275Z" fill="white" fill-opacity="0.3"/>
<path d="M355.877 309.977C355.636 308.522 355.435 307.1 355.215 305.662C354.027 297.702 352.777 289.482 349.874 281.824C348.909 279.239 347.659 276.205 345.828 273.451C344.646 271.623 343.19 269.914 341.779 268.277C331.106 255.771 326.908 240.237 329.26 222.123C329.534 220.054 329.876 217.905 330.227 215.867C331.283 209.547 332.34 203.018 331.259 196.714C329.088 184.24 319.62 177.061 309.6 169.419C307.734 167.992 305.847 166.548 303.994 165.064C304.316 164.846 304.6 164.632 304.905 164.435C306.655 165.834 308.46 167.209 310.245 168.568C319.999 175.987 330.08 183.68 332.321 196.527C333.457 203.015 332.352 209.643 331.302 216.038C330.951 218.076 330.605 220.188 330.332 222.257C328.008 240.046 332.146 255.32 342.608 267.58C344.022 269.255 345.478 270.964 346.722 272.843C348.617 275.686 349.891 278.774 350.879 281.413C353.83 289.182 355.086 297.477 356.261 305.495C356.484 306.971 356.688 308.43 356.949 309.903L355.877 309.977Z" fill="white" fill-opacity="0.3"/>
<path d="M382.15 163.697C384.165 165.735 385.157 169.075 386.038 172.007C386.279 172.801 386.497 173.576 386.748 174.274C387.945 177.785 389.235 181.931 389.712 186.3C390.424 192.712 389.182 198.632 386.187 202.907C384.841 204.842 383.213 206.575 381.637 208.246C377.309 212.865 373.569 216.865 376.173 223.679C381.655 238.097 384.04 253.884 383.059 269.285L383.011 270.255C382.832 272.75 382.676 275.3 383.153 277.719C383.623 280.064 384.729 282.314 385.787 284.455L386.248 285.399C388.33 289.722 390.125 294.222 391.55 298.83C391.225 299.01 390.92 299.207 390.595 299.386C389.166 294.741 387.386 290.183 385.283 285.843L384.822 284.899C383.72 282.686 382.591 280.381 382.108 277.886C381.58 275.32 381.767 272.692 381.922 270.142L381.987 269.152C382.943 253.905 380.575 238.305 375.16 224.013C372.331 216.557 376.488 212.142 380.851 207.482C382.393 205.852 384.003 204.139 385.297 202.266C388.139 198.174 389.312 192.544 388.639 186.375C388.173 182.119 386.906 178.027 385.716 174.591C385.466 173.894 385.226 173.101 385.003 172.287C384.152 169.484 383.19 166.275 381.362 164.428C376.442 159.464 368.451 156.414 362.01 153.968L361.382 153.72C359.561 153.028 357.644 152.325 355.632 151.611C354.322 151.139 352.992 150.649 351.642 150.143C352.779 150.157 353.916 150.171 355.06 150.26C355.373 150.384 355.687 150.508 356.018 150.612C358.05 151.343 359.967 152.046 361.808 152.755L362.436 153.003C368.939 155.501 377.066 158.595 382.15 163.697Z" fill="white" fill-opacity="0.3"/>
<path d="M306.749 196.758C305.865 196.399 304.96 196.441 304.276 196.841C302.945 197.639 302.792 199.356 302.788 200.606C302.798 205.698 303.395 210.794 304.584 215.726C305.48 219.471 307.541 221.827 309.679 221.602C310.41 221.52 311.023 221.163 311.52 220.57C312.411 219.508 312.936 217.721 312.996 215.368C313.123 209.905 311.851 204.451 309.324 199.58C308.893 198.766 308.357 197.828 307.485 197.166C307.263 197.015 307.004 196.868 306.749 196.758ZM308.383 200.079C310.839 204.786 312.058 210.055 311.934 215.348C311.855 218.345 310.919 220.415 309.57 220.571C308.258 220.724 306.482 219.024 305.643 215.501C304.461 210.644 303.853 205.643 303.85 200.627C303.853 199.794 303.928 198.708 304.46 198.075C304.563 197.952 304.686 197.847 304.829 197.758C305.243 197.514 305.793 197.523 306.38 197.736C306.557 197.816 306.717 197.915 306.898 198.032C307.548 198.543 308.017 199.354 308.383 200.079Z" fill="white" fill-opacity="0.3"/>
<path d="M334.436 294.911L334.551 295.355C335.859 300.143 337.209 304.758 338.57 309.276C338.188 309.235 337.802 309.154 337.417 309.075C336.09 304.723 334.807 300.235 333.532 295.614L333.397 295.153C331.34 287.439 329.728 285.668 328.731 285.528C328.004 285.44 327.274 286.394 326.834 287.209C326.03 288.623 326.181 290.351 326.431 292.336L328.361 307.046C327.993 306.946 327.624 306.846 327.235 306.728L325.365 292.486C325.145 290.84 324.849 288.537 325.9 286.704C326.82 285.109 327.834 284.357 328.885 284.474C331.414 284.821 333.175 290.232 334.436 294.911Z" fill="white" fill-opacity="0.3"/>
</g>
</g>
<defs>
<linearGradient id="paint0_linear_14418_8113" x1="180" y1="0" x2="180" y2="360" gradientUnits="userSpaceOnUse">
<stop stop-color="#00B0FF"/>
<stop offset="1" stop-color="#121212" stop-opacity="0"/>
</linearGradient>
<clipPath id="clip0_14418_8113">
<rect width="360" height="450" fill="white"/>
</clipPath>
<clipPath id="clip1_14418_8113">
<rect width="160" height="160" fill="white" transform="translate(270.456 149.884)"/>
</clipPath>
</defs>
</svg>
