<svg width="24" height="25" viewBox="0 0 24 25" fill="none" xmlns="http://www.w3.org/2000/svg">
<path d="M15.3336 22.5H8.66653V13.1662C8.66653 12.9893 8.73678 12.8198 8.86181 12.6947C8.98684 12.5697 9.15642 12.4995 9.33324 12.4995H14.6669C14.8437 12.4995 15.0133 12.5697 15.1383 12.6947C15.2633 12.8198 15.3336 12.9893 15.3336 13.1662V22.5ZM21.3339 22.5H15.3336V19.2776C15.3336 19.1008 15.4038 18.9312 15.5288 18.8062C15.6539 18.6811 15.8234 18.6109 16.0003 18.6109H21.3339C21.5107 18.6109 21.6803 18.6811 21.8053 18.8062C21.9303 18.9312 22.0006 19.1008 22.0006 19.2776V21.8333C22.0006 22.0101 21.9303 22.1797 21.8053 22.3047C21.6803 22.4298 21.5107 22.5 21.3339 22.5ZM8.66653 22.5V17.0553C8.66653 16.8784 8.59629 16.7089 8.47126 16.5838C8.34623 16.4588 8.17665 16.3886 7.99983 16.3886H2.66621C2.48939 16.3886 2.31982 16.4588 2.19478 16.5838C2.06975 16.7089 1.99951 16.8784 1.99951 17.0553V21.8333C1.99951 22.0101 2.06975 22.1797 2.19478 22.3047C2.31982 22.4298 2.48939 22.5 2.66621 22.5H8.66653ZM10.6733 4.84684L11.6834 2.70561C11.7106 2.6444 11.7551 2.5924 11.8113 2.55591C11.8675 2.51942 11.933 2.5 12 2.5C12.0671 2.5 12.1326 2.51942 12.1888 2.55591C12.245 2.5924 12.2895 2.6444 12.3167 2.70561L13.3279 4.84684L15.5858 5.19241C15.8758 5.23686 15.9914 5.61021 15.7814 5.82355L14.1479 7.49031L14.5335 9.84377C14.5824 10.146 14.2802 10.3771 14.0202 10.2338L12 9.12262L9.97994 10.2338C9.72104 10.376 9.41769 10.146 9.46658 9.84377L9.85215 7.49031L8.21873 5.82355C8.00761 5.61021 8.12428 5.23686 8.41319 5.19241L10.6733 4.84795V4.84684Z" fill="#101820" stroke="#101820" stroke-linecap="round" stroke-linejoin="round"/>
</svg>
