<svg width="24" height="24" viewBox="0 0 24 24" fill="none" xmlns="http://www.w3.org/2000/svg">
<path fill-rule="evenodd" clip-rule="evenodd" d="M4.75 4.5C4.33579 4.5 4 4.83579 4 5.25C4 5.66421 4.33579 6 4.75 6H18.75C19.1642 6 19.5 5.66421 19.5 5.25C19.5 4.83579 19.1642 4.5 18.75 4.5H4.75ZM4.75 9.75C4.33579 9.75 4 10.0858 4 10.5C4 10.9142 4.33579 11.25 4.75 11.25H18.75C19.1642 11.25 19.5 10.9142 19.5 10.5C19.5 10.0858 19.1642 9.75 18.75 9.75H4.75ZM4 16.5C4 16.0858 4.33579 15.75 4.75 15.75H12.75C13.1642 15.75 13.5 16.0858 13.5 16.5C13.5 16.9142 13.1642 17.25 12.75 17.25H4.75C4.33579 17.25 4 16.9142 4 16.5ZM15.8676 13.478C16.1605 13.1851 16.6354 13.1851 16.9283 13.478L18.8728 15.4226L20.8174 13.478C21.1103 13.1851 21.5851 13.1851 21.878 13.478C22.1709 13.7709 22.1709 14.2458 21.878 14.5387L19.9335 16.4832L21.878 18.4278C22.1709 18.7207 22.1709 19.1955 21.878 19.4884C21.5851 19.7813 21.1103 19.7813 20.8174 19.4884L18.8728 17.5439L16.9283 19.4884C16.6354 19.7813 16.1605 19.7813 15.8676 19.4884C15.5747 19.1955 15.5747 18.7207 15.8676 18.4278L17.8122 16.4832L15.8676 14.5387C15.5747 14.2458 15.5747 13.7709 15.8676 13.478Z" fill="white"/>
</svg>
