<svg width="24" height="25" viewBox="0 0 24 25" fill="none" xmlns="http://www.w3.org/2000/svg">
<path d="M12 22.6C13.1282 22.6 14.0513 21.6769 14.0513 20.5487H9.94871C9.94871 21.6769 10.8718 22.6 12 22.6ZM18.1538 17.4718V11.3179C18.1538 8.16921 16.482 5.53331 13.5384 4.83587V4.13844C13.5384 3.28716 12.8513 2.59998 12 2.59998C11.1487 2.59998 10.4615 3.28716 10.4615 4.13844V4.83587C7.52819 5.53331 5.84614 8.15895 5.84614 11.3179V17.4718H4.79486C4.24258 17.4718 3.79486 17.9195 3.79486 18.4718V18.5231C3.79486 19.0753 4.24258 19.5231 4.79486 19.5231H19.2051C19.7574 19.5231 20.2051 19.0753 20.2051 18.5231V18.4718C20.2051 17.9195 19.7574 17.4718 19.2051 17.4718H18.1538ZM16.1026 17.4718H7.89743V11.3179C7.89743 8.77433 9.44614 6.70254 12 6.70254C14.5538 6.70254 16.1026 8.77433 16.1026 11.3179V17.4718Z" fill="#101820"/>
<circle cx="17.5" cy="7.09998" r="3.75" fill="#00B0FF" stroke="#F8F8F8" stroke-width="1.5"/>
</svg>
