<svg width="24" height="24" viewBox="0 0 24 24" fill="none" xmlns="http://www.w3.org/2000/svg">
<path d="M5.00703 9.65366C5.00703 9.23764 4.66978 8.90039 4.25376 8.90039C3.83774 8.90039 3.50049 9.23764 3.50049 9.65366V18.8004C3.50049 19.7354 4.26549 20.5004 5.20049 20.5004H14.3485C14.7638 20.5004 15.1005 20.1637 15.1005 19.7484C15.1005 19.3331 14.7638 18.9964 14.3485 18.9964H5.00703V9.65366Z" fill="#686A6F"/>
<path d="M17.4149 10.3002C17.4149 10.7105 17.0823 11.0431 16.672 11.0431H14.4435V13.2717C14.4435 13.6819 14.1109 14.0145 13.7006 14.0145C13.2903 14.0145 12.9578 13.6819 12.9578 13.2717V11.0431H10.7292C10.3189 11.0431 9.98633 10.7105 9.98633 10.3002C9.98633 9.88996 10.3189 9.55737 10.7292 9.55737H12.9578V7.3288C12.9578 6.91853 13.2903 6.58594 13.7006 6.58594C14.1109 6.58594 14.4435 6.91853 14.4435 7.3288V9.55737H16.672C17.0823 9.55737 17.4149 9.88996 17.4149 10.3002Z" fill="#686A6F"/>
<path d="M8.6004 4.25H18.8004C19.3212 4.25 19.7504 4.67922 19.7504 5.20001V15.4C19.7504 15.9208 19.3212 16.35 18.8004 16.35H8.6004C8.07961 16.35 7.65039 15.9208 7.65039 15.4V5.20001C7.65039 4.67922 8.07961 4.25 8.6004 4.25Z" stroke="#686A6F" stroke-width="1.5"/>
</svg>
