<svg width="20" height="21" viewBox="0 0 20 21" fill="none" xmlns="http://www.w3.org/2000/svg">
<path d="M10.7195 8.68114C10.8398 8.32021 11.3495 8.32021 11.4698 8.68114L12.1753 10.7997C12.3306 11.2655 12.5922 11.6886 12.9394 12.0357C13.2866 12.3827 13.7099 12.6441 14.1757 12.7991L16.2933 13.5046C16.6542 13.6249 16.6542 14.1346 16.2933 14.2549L14.1747 14.9604C13.7089 15.1157 13.2858 15.3773 12.9387 15.7245C12.5917 16.0718 12.3303 16.4951 12.1753 16.9609L11.4698 19.0784C11.4439 19.1574 11.3936 19.2262 11.3263 19.275C11.2589 19.3238 11.1778 19.3501 11.0946 19.3501C11.0115 19.3501 10.9304 19.3238 10.863 19.275C10.7957 19.2262 10.7454 19.1574 10.7195 19.0784L10.014 16.9598C9.85884 16.4942 9.59738 16.0711 9.25035 15.7241C8.90331 15.377 8.48023 15.1156 8.01463 14.9604L5.89603 14.2549C5.81699 14.229 5.74817 14.1787 5.69937 14.1114C5.65058 14.044 5.62431 13.9629 5.62431 13.8798C5.62431 13.7966 5.65058 13.7155 5.69937 13.6481C5.74817 13.5808 5.81699 13.5305 5.89603 13.5046L8.01463 12.7991C8.48023 12.644 8.90331 12.3825 9.25035 12.0355C9.59738 11.6884 9.85884 11.2654 10.014 10.7997L10.7195 8.68114ZM6.49431 3.10409C6.50999 3.05672 6.54021 3.01551 6.58066 2.98629C6.6211 2.95708 6.66973 2.94135 6.71962 2.94135C6.76952 2.94135 6.81814 2.95708 6.85859 2.98629C6.89904 3.01551 6.92925 3.05672 6.94494 3.10409L7.36822 4.37503C7.55744 4.9416 8.0015 5.38566 8.56807 5.57488L9.83901 5.99816C9.88638 6.01385 9.9276 6.04406 9.95681 6.08451C9.98602 6.12496 10.0017 6.17358 10.0017 6.22348C10.0017 6.27337 9.98602 6.322 9.95681 6.36245C9.9276 6.40289 9.88638 6.43311 9.83901 6.44879L8.56807 6.87207C8.28848 6.96487 8.03441 7.12166 7.82611 7.32996C7.6178 7.53827 7.46101 7.79233 7.36822 8.07192L6.94494 9.34287C6.92925 9.39023 6.89904 9.43145 6.85859 9.46066C6.81814 9.48988 6.76952 9.5056 6.71962 9.5056C6.66973 9.5056 6.6211 9.48988 6.58066 9.46066C6.54021 9.43145 6.50999 9.39023 6.49431 9.34287L6.07103 8.07192C5.97824 7.79233 5.82144 7.53827 5.61314 7.32996C5.40483 7.12166 5.15077 6.96487 4.87118 6.87207L3.60024 6.44879C3.55287 6.43311 3.51165 6.40289 3.48244 6.36245C3.45322 6.322 3.4375 6.27337 3.4375 6.22348C3.4375 6.17358 3.45322 6.12496 3.48244 6.08451C3.51165 6.04406 3.55287 6.01385 3.60024 5.99816L4.87118 5.57488C5.15077 5.48209 5.40483 5.3253 5.61314 5.11699C5.82144 4.90869 5.97824 4.65462 6.07103 4.37503L6.49431 3.10409ZM14.2261 1.95674C14.2369 1.9256 14.2571 1.89859 14.2839 1.87948C14.3108 1.86037 14.3429 1.8501 14.3759 1.8501C14.4089 1.8501 14.441 1.86037 14.4679 1.87948C14.4947 1.89859 14.515 1.9256 14.5257 1.95674L14.8079 2.80331C14.9337 3.18175 15.2301 3.47815 15.6086 3.60394L16.4551 3.88612C16.4863 3.89692 16.5133 3.91715 16.5324 3.94401C16.5515 3.97086 16.5618 4.00301 16.5618 4.03597C16.5618 4.06893 16.5515 4.10107 16.5324 4.12793C16.5133 4.15478 16.4863 4.17502 16.4551 4.18581L15.6086 4.468C15.4222 4.53035 15.2529 4.63512 15.114 4.77405C14.9751 4.91299 14.8703 5.0823 14.8079 5.26863L14.5257 6.1152C14.515 6.14634 14.4947 6.17335 14.4679 6.19246C14.441 6.21157 14.4089 6.22184 14.3759 6.22184C14.3429 6.22184 14.3108 6.21157 14.2839 6.19246C14.2571 6.17335 14.2369 6.14634 14.2261 6.1152L13.9439 5.26863C13.8815 5.0823 13.7768 4.91299 13.6378 4.77405C13.4989 4.63512 13.3296 4.53035 13.1432 4.468L12.2978 4.18581C12.2666 4.17502 12.2396 4.15478 12.2205 4.12793C12.2014 4.10107 12.1911 4.06893 12.1911 4.03597C12.1911 4.00301 12.2014 3.97086 12.2205 3.94401C12.2396 3.91715 12.2666 3.89692 12.2978 3.88612L13.1443 3.60394C13.5228 3.47815 13.8192 3.18175 13.945 2.80331L14.2261 1.95674Z" fill="white"/>
</svg>
