<svg width="56" height="56" viewBox="0 0 56 56" fill="none" xmlns="http://www.w3.org/2000/svg">
<path fill-rule="evenodd" clip-rule="evenodd" d="M28 56C43.464 56 56 43.464 56 28C56 12.536 43.464 0 28 0C12.536 0 0 12.536 0 28C0 43.464 12.536 56 28 56Z" fill="#121212"/>
<path fill-rule="evenodd" clip-rule="evenodd" d="M20.9545 18H25.0454C25.4225 18 25.7273 18.4064 25.7273 18.9091V37.0909C25.7273 37.5936 25.4225 38 25.0454 38H20.9545C20.5775 38 20.2727 37.5936 20.2727 37.0909V18.9091C20.2727 18.4064 20.5775 18 20.9545 18ZM30.9544 18H35.0453C35.4224 18 35.7271 18.4064 35.7271 18.9091V37.0909C35.7271 37.5936 35.4224 38 35.0453 38H30.9544C30.5774 38 30.2726 37.5936 30.2726 37.0909V18.9091C30.2726 18.4064 30.5774 18 30.9544 18Z" fill="white"/>
</svg>
