<svg width="48" height="49" viewBox="0 0 48 49" fill="none" xmlns="http://www.w3.org/2000/svg">
<rect y="0.600098" width="48" height="48" rx="24" fill="url(#paint0_linear_16175_20888)"/>
<path fill-rule="evenodd" clip-rule="evenodd" d="M28.8195 17.9051C27.4821 16.9425 25.887 16.4025 24.2399 16.3546C22.5927 16.3067 20.969 16.7532 19.5779 17.6364C18.1868 18.5197 17.092 19.7994 16.4348 21.3104C15.7775 22.8215 15.5878 24.4948 15.8901 26.1147C15.9399 26.4057 15.8733 26.7047 15.7047 26.947C15.5361 27.1894 15.279 27.3558 14.9888 27.4104C14.6986 27.4649 14.3986 27.4032 14.1535 27.2385C13.9085 27.0739 13.7379 26.8195 13.6787 26.5303C13.2877 24.4379 13.5418 22.2761 14.4074 20.3315C15.273 18.3869 16.7092 16.7512 18.5255 15.6414C20.3418 14.5316 22.4526 13.9999 24.5779 14.117C26.7033 14.234 28.7429 14.9942 30.4263 16.2968L31.3445 15.3786C31.4493 15.2735 31.583 15.2019 31.7285 15.1728C31.8741 15.1437 32.025 15.1584 32.1622 15.2151C32.2994 15.2718 32.4166 15.368 32.4991 15.4913C32.5817 15.6147 32.6257 15.7598 32.6258 15.9082V19.3484C32.6258 19.5473 32.5467 19.7381 32.4061 19.8788C32.2654 20.0195 32.0746 20.0985 31.8756 20.0985H28.4355C28.2873 20.0982 28.1426 20.054 28.0196 19.9716C27.8965 19.8891 27.8006 19.7721 27.744 19.6352C27.6874 19.4984 27.6725 19.3478 27.7013 19.2025C27.7301 19.0572 27.8013 18.9237 27.9059 18.8188L28.8195 17.9051ZM33.0068 21.7714C33.3001 21.7161 33.6033 21.7795 33.8498 21.9478C34.0962 22.116 34.2658 22.3753 34.3211 22.6685C34.7124 24.7611 34.4584 26.9233 33.5928 28.8682C32.7271 30.8132 31.2908 32.449 29.4741 33.559C27.6575 34.6689 25.5464 35.2005 23.4208 35.0831C21.2951 34.9658 19.2553 34.2051 17.5719 32.902L16.6537 33.8217C16.5488 33.9268 16.415 33.9985 16.2693 34.0276C16.1236 34.0566 15.9726 34.0418 15.8354 33.9849C15.6981 33.928 15.5809 33.8316 15.4985 33.708C15.4161 33.5844 15.3722 33.4391 15.3725 33.2906V29.8504C15.3725 29.6515 15.4515 29.4606 15.5922 29.32C15.7329 29.1793 15.9237 29.1003 16.1226 29.1003H19.5628C19.7113 29.1 19.8566 29.1438 19.9802 29.2263C20.1038 29.3087 20.2002 29.4259 20.2571 29.5632C20.314 29.7004 20.3288 29.8514 20.2998 29.9971C20.2707 30.1428 20.1991 30.2766 20.0939 30.3815L19.1787 31.2952C20.5161 32.2578 22.1112 32.7978 23.7584 32.8457C25.4055 32.8936 27.0293 32.4471 28.4204 31.5639C29.8115 30.6806 30.9062 29.4009 31.5635 27.8899C32.2208 26.3788 32.4105 24.7055 32.1082 23.0856C32.0808 22.9402 32.0824 22.7908 32.1129 22.646C32.1433 22.5012 32.202 22.3638 32.2857 22.2418C32.3693 22.1197 32.4761 22.0153 32.6002 21.9346C32.7242 21.8539 32.8629 21.7984 33.0083 21.7714H33.0068ZM22.7704 20.1495C23.0554 18.8443 24.9113 18.8383 25.2084 20.1375L25.2234 20.2036C25.3838 21.0023 25.782 21.7339 26.3657 22.3023C26.9494 22.8707 27.6912 23.2494 28.494 23.3887C29.8502 23.6242 29.8502 25.5746 28.4925 25.8101C27.7078 25.9466 26.9811 26.3119 26.4034 26.8602C25.8258 27.4085 25.4231 28.1153 25.2459 28.8917L25.2084 29.0613C24.9113 30.362 23.0554 30.353 22.7704 29.0507L22.7389 28.9052C22.5683 28.1262 22.1695 27.4156 21.5934 26.8641C21.0173 26.3126 20.29 25.9451 19.5043 25.8086C18.1495 25.5731 18.1495 23.6272 19.5043 23.3917C20.2874 23.2553 21.0125 22.8895 21.5875 22.3406C22.1625 21.7918 22.5617 21.0845 22.7344 20.3086L22.7584 20.2021L22.7704 20.1495Z" fill="#4B4DDE"/>
<defs>
<linearGradient id="paint0_linear_16175_20888" x1="24" y1="0.600098" x2="24" y2="48.6001" gradientUnits="userSpaceOnUse">
<stop stop-color="#C5B4EA" stop-opacity="0.6"/>
<stop offset="1" stop-color="#D892F0" stop-opacity="0.05"/>
</linearGradient>
</defs>
</svg>
