<svg width="24" height="25" viewBox="0 0 24 25" fill="none" xmlns="http://www.w3.org/2000/svg">
<path d="M5.77778 7.56657C5.77778 7.33082 5.87143 7.10473 6.03813 6.93803C6.20483 6.77133 6.43092 6.67768 6.66667 6.67768H8.44444C8.68019 6.67768 8.90628 6.58403 9.07298 6.41733C9.23968 6.25063 9.33333 6.02454 9.33333 5.78879C9.33333 5.55304 9.23968 5.32695 9.07298 5.16025C8.90628 4.99355 8.68019 4.8999 8.44444 4.8999H6.66667C5.95942 4.8999 5.28115 5.18085 4.78105 5.68095C4.28095 6.18105 4 6.85933 4 7.56657V9.34435C4 9.58009 4.09365 9.80619 4.26035 9.97289C4.42705 10.1396 4.65314 10.2332 4.88889 10.2332C5.12464 10.2332 5.35073 10.1396 5.51743 9.97289C5.68413 9.80619 5.77778 9.58009 5.77778 9.34435V7.56657Z" fill="white"/>
<path d="M5.77778 18.2331C5.77778 18.4688 5.87143 18.6949 6.03813 18.8616C6.20483 19.0283 6.43092 19.122 6.66667 19.122H8.44444C8.68019 19.122 8.90628 19.2156 9.07298 19.3823C9.23968 19.549 9.33333 19.7751 9.33333 20.0109C9.33333 20.2466 9.23968 20.4727 9.07298 20.6394C8.90628 20.8061 8.68019 20.8997 8.44444 20.8997H6.66667C5.95942 20.8997 5.28115 20.6188 4.78105 20.1187C4.28095 19.6186 4 18.9403 4 18.2331V16.4553C4 16.2195 4.09365 15.9935 4.26035 15.8268C4.42705 15.6601 4.65314 15.5664 4.88889 15.5664C5.12464 15.5664 5.35073 15.6601 5.51743 15.8268C5.68413 15.9935 5.77778 16.2195 5.77778 16.4553V18.2331Z" fill="white"/>
<path d="M17.3333 6.67768C17.5691 6.67768 17.7952 6.77133 17.9619 6.93803C18.1286 7.10473 18.2222 7.33082 18.2222 7.56657V9.34435C18.2222 9.58009 18.3159 9.80619 18.4826 9.97289C18.6493 10.1396 18.8754 10.2332 19.1111 10.2332C19.3468 10.2332 19.5729 10.1396 19.7396 9.97289C19.9063 9.80619 20 9.58009 20 9.34435V7.56657C20 6.85933 19.719 6.18105 19.2189 5.68095C18.7188 5.18085 18.0406 4.8999 17.3333 4.8999H15.5555C15.3198 4.8999 15.0937 4.99355 14.927 5.16025C14.7603 5.32695 14.6667 5.55304 14.6667 5.78879C14.6667 6.02454 14.7603 6.25063 14.927 6.41733C15.0937 6.58403 15.3198 6.67768 15.5555 6.67768H17.3333Z" fill="white"/>
<path d="M18.2222 18.2331C18.2222 18.4688 18.1286 18.6949 17.9619 18.8616C17.7952 19.0283 17.5691 19.122 17.3333 19.122H15.5555C15.3198 19.122 15.0937 19.2156 14.927 19.3823C14.7603 19.549 14.6667 19.7751 14.6667 20.0109C14.6667 20.2466 14.7603 20.4727 14.927 20.6394C15.0937 20.8061 15.3198 20.8997 15.5555 20.8997H17.3333C18.0406 20.8997 18.7188 20.6188 19.2189 20.1187C19.719 19.6186 20 18.9403 20 18.2331V16.4553C20 16.2195 19.9063 15.9935 19.7396 15.8268C19.5729 15.6601 19.3468 15.5664 19.1111 15.5664C18.8754 15.5664 18.6493 15.6601 18.4826 15.8268C18.3159 15.9935 18.2222 16.2195 18.2222 16.4553V18.2331Z" fill="white"/>
</svg>
