<svg width="24" height="25" viewBox="0 0 24 25" fill="none" xmlns="http://www.w3.org/2000/svg">
<path fill-rule="evenodd" clip-rule="evenodd" d="M2.98779 6.24176C2.57358 6.24176 2.23779 6.57755 2.23779 6.99176C2.23779 7.40597 2.57358 7.74176 2.98779 7.74176H16.9878C17.402 7.74176 17.7378 7.40597 17.7378 6.99176C17.7378 6.57755 17.402 6.24176 16.9878 6.24176H2.98779ZM2.98779 11.4918C2.57358 11.4918 2.23779 11.8275 2.23779 12.2418C2.23779 12.656 2.57358 12.9918 2.98779 12.9918H10.9878C11.402 12.9918 11.7378 12.656 11.7378 12.2418C11.7378 11.8275 11.402 11.4918 10.9878 11.4918H2.98779ZM2.23779 18.2418C2.23779 17.8275 2.57358 17.4918 2.98779 17.4918H10.9878C11.402 17.4918 11.7378 17.8275 11.7378 18.2418C11.7378 18.656 11.402 18.9918 10.9878 18.9918H2.98779C2.57358 18.9918 2.23779 18.656 2.23779 18.2418ZM15.4097 10.8558L21.4097 14.6058C21.5176 14.6732 21.6065 14.7669 21.6682 14.8782C21.7299 14.9894 21.7622 15.1146 21.7622 15.2418C21.7622 15.369 21.7299 15.4941 21.6682 15.6053C21.6065 15.7166 21.5176 15.8103 21.4097 15.8778L15.4097 19.6278C15.2962 19.6987 15.1657 19.738 15.0319 19.7415C14.8981 19.745 14.7657 19.7126 14.6486 19.6477C14.5315 19.5828 14.4339 19.4878 14.366 19.3724C14.298 19.2571 14.2622 19.1256 14.2622 18.9918V11.4918C14.2622 11.3579 14.298 11.2264 14.366 11.1111C14.4339 10.9957 14.5315 10.9007 14.6486 10.8358C14.7657 10.7709 14.8981 10.7385 15.0319 10.742C15.1657 10.7455 15.2962 10.7848 15.4097 10.8558Z" fill="white"/>
</svg>
