<svg width="24" height="24" viewBox="0 0 24 24" fill="none" xmlns="http://www.w3.org/2000/svg">
<path fill-rule="evenodd" clip-rule="evenodd" d="M14.4999 9.90952V7.39001L19.093 11.9831L14.4999 16.2865V13.6248L13.0123 13.52C12.7165 13.4992 12.4259 13.49 12.1412 13.49C9.28183 13.49 7.10449 14.5527 5.64318 15.623C5.3224 15.8579 5.035 16.0939 4.78085 16.3203C5.2321 14.016 6.47058 12.6218 7.84325 11.7226C9.6695 10.5262 11.8387 10.1515 13.0448 10.0418L14.4999 9.90952ZM3 18.2997C3.00002 18.4883 3.05928 18.6721 3.16941 18.8252C3.27955 18.9783 3.43499 19.0929 3.61379 19.1529C3.79203 19.2131 3.98469 19.2156 4.16446 19.1602C4.34424 19.1048 4.50203 18.9943 4.61548 18.8442C4.61889 18.8398 4.62459 18.8322 4.63259 18.8214C4.86893 18.5037 7.10878 15.4925 11.2999 15.1264C11.3423 15.1227 11.385 15.1192 11.4278 15.1161C11.6597 15.099 11.8975 15.09 12.1412 15.09C12.3914 15.09 12.6443 15.0981 12.8999 15.1161V17.9024C12.8995 18.0806 12.9521 18.2549 13.0509 18.4031C13.1497 18.5514 13.2903 18.6669 13.4549 18.7351C13.6196 18.8033 13.8007 18.821 13.9754 18.786C14.1501 18.7511 14.3105 18.665 14.4362 18.5387L20.7361 12.6361C20.8198 12.5526 20.8861 12.4534 20.9314 12.3442C20.9767 12.235 21 12.118 21 11.9998C21 11.8816 20.9767 11.7645 20.9314 11.6554C20.8861 11.5462 20.8198 11.447 20.7361 11.3635L14.4362 5.06355C14.3103 4.93773 14.15 4.85204 13.9754 4.81733C13.8009 4.78262 13.6199 4.80044 13.4555 4.86855C13.2911 4.93665 13.1505 5.05197 13.0516 5.19994C12.9527 5.34791 12.8999 5.52187 12.8999 5.69985V8.44842C10.2773 8.68692 3 10.0882 3 18.2997Z" fill="white"/>
</svg>
