<svg width="21" height="20" viewBox="0 0 21 20" fill="none" xmlns="http://www.w3.org/2000/svg">
<path d="M10.7031 2.53572C10.618 2.50386 10.5265 2.49309 10.4364 2.50431C10.3462 2.51553 10.2601 2.54842 10.1854 2.60017C10.1108 2.65191 10.0498 2.72097 10.0076 2.80144C9.96542 2.88191 9.94338 2.9714 9.94333 3.06224V12.1579C9.42358 11.7418 8.78016 11.5103 8.11442 11.5001C7.44868 11.4898 6.79845 11.7013 6.26613 12.1013C5.73382 12.5012 5.34967 13.0669 5.17419 13.7092C4.99871 14.3514 5.04187 15.0338 5.29687 15.6489C5.55188 16.2639 6.00423 16.7767 6.5827 17.1064C7.16116 17.4361 7.83286 17.564 8.492 17.4699C9.15115 17.3759 9.76028 17.0652 10.2235 16.5869C10.6866 16.1086 10.9776 15.4898 11.0504 14.828C11.0623 14.7822 11.0683 14.7351 11.0684 14.6877V6.37394L15.4787 7.89906C15.5638 7.93091 15.6553 7.94169 15.7455 7.93047C15.8356 7.91924 15.9217 7.88635 15.9964 7.83461C16.071 7.78286 16.1321 7.7138 16.1742 7.63333C16.2164 7.55287 16.2385 7.46338 16.2385 7.37254V6.17218C16.2386 5.67584 16.0872 5.19128 15.8046 4.78329C15.5219 4.37531 15.1214 4.06333 14.6567 3.88908L10.7031 2.53572Z" fill="#00B0FF"/>
</svg>
