<svg width="48" height="48" viewBox="0 0 48 48" fill="none" xmlns="http://www.w3.org/2000/svg">
<circle cx="24" cy="24" r="24" fill="white" fill-opacity="0.3"/>
<circle cx="24" cy="24" r="23.5" stroke="black" stroke-opacity="0.1"/>
<path fill-rule="evenodd" clip-rule="evenodd" d="M19.9359 17.3195C17.8727 17.3195 16.2273 18.965 16.2273 21.0281C16.2273 22.32 16.5804 23.3618 17.7356 24.7492C18.9068 26.1558 20.8521 27.8567 24 30.4245C27.1479 27.8567 29.0933 26.1558 30.2645 24.7492C31.4197 23.3618 31.7728 22.32 31.7728 21.0281C31.7728 18.965 30.1274 17.3195 28.0642 17.3195C26.3714 17.3195 25.4232 18.2377 24.6455 19.1125C24.4816 19.2969 24.2467 19.4024 24 19.4024C23.7534 19.4024 23.5184 19.2969 23.3546 19.1125C22.5769 18.2377 21.6287 17.3195 19.9359 17.3195ZM14.5 21.0281C14.5 18.011 16.9188 15.5923 19.9359 15.5923C21.8637 15.5923 23.1325 16.4544 24 17.2865C24.8676 16.4544 26.1364 15.5923 28.0642 15.5923C31.0813 15.5923 33.5 18.011 33.5 21.0281C33.5 22.7843 32.964 24.2065 31.5919 25.8544C30.2657 27.4472 28.1155 29.3019 24.8539 31.9568L24.5529 32.2076C24.2327 32.4745 23.7674 32.4745 23.4472 32.2076L23.1462 31.9568C19.8846 29.3019 17.7344 27.4472 16.4082 25.8544C15.036 24.2065 14.5 22.7843 14.5 21.0281Z" fill="white"/>
<path d="M24 31.7236L23.6824 31.4589C16.8529 25.9001 15 23.9412 15 20.7648C15 18.1177 17.1176 16.0001 19.7647 16.0001C21.9353 16.0001 23.1529 17.2177 24 18.1706C24.8471 17.2177 26.0647 16.0001 28.2353 16.0001C30.8824 16.0001 33 18.1177 33 20.7648C33 23.9412 31.1471 25.9001 24.3176 31.4589L24 31.7236Z" fill="#FC5B6F" stroke="#FC5B6F" stroke-linejoin="round"/>
</svg>
