<svg width="36" height="36" viewBox="0 0 36 36" fill="none" xmlns="http://www.w3.org/2000/svg">
<circle cx="18" cy="18" r="17.5" stroke="#E3F2FD"/>
<path d="M21.3486 23.2956L21.5036 26.4456L18.3178 24.2318L15.1141 26.4483L15.2691 23.2965H13.9234L13.6914 28H15.2324L18.3151 25.8677L21.3836 28H22.9245L22.6925 23.2965H21.3469L21.3486 23.2956Z" fill="#00B0FF"/>
<path d="M24.6943 13.8296L24.602 11.8111L22.9007 10.7226L21.8122 9.02132L19.7937 8.92905L18.0001 8L16.2066 8.92905L14.1881 9.02132L13.0996 10.7226L11.3983 11.8111L11.306 13.8296L10.377 15.6232L11.306 17.4168L11.3983 19.4352L13.0996 20.5238L14.1881 22.2251L16.2066 22.3173L18.0001 23.2464L19.7937 22.3173L21.8122 22.2251L22.9007 20.5238L24.602 19.4352L24.6943 17.4168L25.6233 15.6232L24.6943 13.8296ZM23.3657 17.0611L23.2922 18.6782L21.9287 19.5508L21.0561 20.9144L19.439 20.9878L18.001 21.7323L16.5631 20.9878L14.946 20.9144L14.0734 19.5508L12.7099 18.6782L12.6364 17.0611L11.8919 15.6232L12.6364 14.1853L12.7099 12.5682L14.0734 11.6956L14.946 10.332L16.5631 10.2577L18.001 9.51317L19.439 10.2577L21.0561 10.332L21.9287 11.6956L23.2922 12.5682L23.3657 14.1853L24.1102 15.6232L23.3657 17.0611Z" fill="#00B0FF"/>
<path d="M17.5872 13.0186C17.7326 12.7278 18.1457 12.7228 18.2982 13.0099L18.9375 14.2139L20.2111 14.3687C20.5518 14.4101 20.6856 14.8331 20.4306 15.0629L19.5088 15.8936L19.6949 17.134C19.7455 17.4718 19.3769 17.7136 19.0873 17.5326L17.9342 16.8119L16.7812 17.5326C16.4916 17.7136 16.123 17.4718 16.1736 17.134L16.3597 15.8936L15.4406 15.0654C15.1852 14.8352 15.32 14.4114 15.6614 14.371L16.9895 14.2139L17.5872 13.0186Z" fill="#5AC8FA"/>
</svg>
