<svg width="48" height="48" viewBox="0 0 48 48" fill="none" xmlns="http://www.w3.org/2000/svg">
<circle cx="24" cy="24" r="24" fill="white" fill-opacity="0.3"/>
<circle cx="24" cy="24" r="23.5" stroke="black" stroke-opacity="0.1"/>
<path fill-rule="evenodd" clip-rule="evenodd" d="M26.4999 22.4095V19.89L31.0929 24.4831L26.4999 28.7865V26.1248L25.0123 26.02C24.7164 25.9992 24.4259 25.99 24.1412 25.99C21.2818 25.99 19.1044 27.0527 17.6431 28.123C17.3224 28.3579 17.035 28.5939 16.7808 28.8203C17.2321 26.5159 18.4705 25.1218 19.8432 24.2226C21.6695 23.0262 23.8387 22.6515 25.0448 22.5418L26.4999 22.4095ZM15 30.7997C15 30.9883 15.0592 31.1721 15.1694 31.3252C15.2795 31.4783 15.4349 31.5929 15.6137 31.6529C15.792 31.7131 15.9846 31.7156 16.1644 31.6602C16.3442 31.6048 16.502 31.4943 16.6154 31.3442C16.6188 31.3398 16.6245 31.3322 16.6325 31.3214C16.8689 31.0037 19.1087 27.9925 23.2999 27.6264C23.3423 27.6227 23.3849 27.6192 23.4277 27.6161C23.6597 27.599 23.8975 27.59 24.1412 27.59C24.3914 27.59 24.6443 27.5981 24.8999 27.6161V30.4024C24.8995 30.5806 24.952 30.7549 25.0508 30.9031C25.1497 31.0514 25.2903 31.1669 25.4549 31.2351C25.6195 31.3033 25.8007 31.321 25.9754 31.286C26.1501 31.2511 26.3104 31.165 26.4361 31.0387L32.7361 25.1361C32.8197 25.0526 32.8861 24.9534 32.9314 24.8442C32.9766 24.735 33 24.618 33 24.4998C33 24.3816 32.9766 24.2645 32.9314 24.1553C32.8861 24.0462 32.8197 23.947 32.7361 23.8635L26.4361 17.5635C26.3103 17.4377 26.1499 17.352 25.9754 17.3173C25.8008 17.2826 25.6199 17.3004 25.4555 17.3685C25.291 17.4366 25.1505 17.552 25.0516 17.6999C24.9527 17.8479 24.8999 18.0219 24.8999 18.1998V20.9484C22.2773 21.1869 15 22.5882 15 30.7997Z" fill="#757575"/>
</svg>
