<svg width="16" height="17" viewBox="0 0 16 17" fill="none" xmlns="http://www.w3.org/2000/svg">
<path d="M7.30019 9.21031L6.21812 8.13851C6.12582 8.04621 6.01151 7.99899 5.87519 7.99684C5.73887 7.99471 5.619 8.04535 5.51559 8.14878C5.419 8.24535 5.37071 8.36244 5.37071 8.50004C5.37071 8.63764 5.419 8.75473 5.51559 8.85131L6.87841 10.2141C6.99892 10.3346 7.13951 10.3949 7.30019 10.3949C7.46087 10.3949 7.60146 10.3346 7.72197 10.2141L10.4848 7.45131C10.5839 7.35217 10.6329 7.23615 10.6316 7.10324C10.6303 6.97034 10.5814 6.85219 10.4848 6.74878C10.3814 6.64535 10.2626 6.59193 10.1284 6.58851C9.99421 6.5851 9.87541 6.6351 9.77199 6.73851L7.30019 9.21031ZM5.60661 14.6218L4.68482 13.0718L2.94124 12.6975C2.79166 12.6684 2.67222 12.5898 2.58291 12.4616C2.4936 12.3334 2.45791 12.1945 2.47586 12.0449L2.64637 10.2513L1.46047 8.89491C1.35792 8.78551 1.30664 8.65389 1.30664 8.50004C1.30664 8.3462 1.35792 8.21458 1.46047 8.10518L2.64637 6.74878L2.47586 4.95519C2.45791 4.80561 2.4936 4.66672 2.58291 4.53852C2.67222 4.41031 2.79166 4.33168 2.94124 4.30262L4.68482 3.92827L5.60661 2.37827C5.68695 2.24665 5.79636 2.15691 5.93482 2.10904C6.07328 2.06119 6.21387 2.06845 6.35661 2.13084L8.00019 2.82571L9.64377 2.13084C9.78651 2.06845 9.9271 2.06119 10.0656 2.10904C10.204 2.15691 10.3134 2.24665 10.3938 2.37827L11.3156 3.92827L13.0591 4.30262C13.2087 4.33168 13.3282 4.41031 13.4175 4.53852C13.5068 4.66672 13.5425 4.80561 13.5245 4.95519L13.354 6.74878L14.5399 8.10518C14.6425 8.21458 14.6938 8.3462 14.6938 8.50004C14.6938 8.65389 14.6425 8.78551 14.5399 8.89491L13.354 10.2513L13.5245 12.0449C13.5425 12.1945 13.5068 12.3334 13.4175 12.4616C13.3282 12.5898 13.2087 12.6684 13.0591 12.6975L11.3156 13.0718L10.3938 14.6218C10.3134 14.7534 10.204 14.8432 10.0656 14.891C9.9271 14.9389 9.78651 14.9316 9.64377 14.8692L8.00019 14.1744L6.35661 14.8692C6.21387 14.9316 6.07328 14.9389 5.93482 14.891C5.79636 14.8432 5.68695 14.7534 5.60661 14.6218Z" fill="#00B0FF"/>
</svg>
