<svg width="36" height="36" viewBox="0 0 36 36" fill="none" xmlns="http://www.w3.org/2000/svg">
<g filter="url(#filter0_b_10492_24306)">
<circle cx="18" cy="18" r="18" fill="white" fill-opacity="0.16"/>
</g>
<path fill-rule="evenodd" clip-rule="evenodd" d="M14.6134 12.433C12.8941 12.433 11.5229 13.8041 11.5229 15.5234C11.5229 16.6 11.8171 17.4681 12.7798 18.6243C13.7558 19.7965 15.3769 21.2139 18.0002 23.3537C20.6234 21.2139 22.2446 19.7965 23.2205 18.6243C24.1832 17.4681 24.4774 16.6 24.4774 15.5234C24.4774 13.8041 23.1063 12.433 21.387 12.433C19.9763 12.433 19.1861 13.1981 18.5381 13.9271C18.4015 14.0808 18.2057 14.1687 18.0002 14.1687C17.7946 14.1687 17.5988 14.0808 17.4623 13.9271C16.8142 13.1981 16.0241 12.433 14.6134 12.433ZM10.0835 15.5234C10.0835 13.0092 12.0991 10.9936 14.6134 10.9936C16.2198 10.9936 17.2772 11.712 18.0002 12.4054C18.7231 11.712 19.7805 10.9936 21.387 10.9936C23.9012 10.9936 25.9168 13.0092 25.9168 15.5234C25.9168 16.9869 25.4702 18.1721 24.3267 19.5454C23.2215 20.8727 21.4297 22.4183 18.7117 24.6307L18.4609 24.8397C18.194 25.0621 17.8063 25.0621 17.5394 24.8397L17.2886 24.6307C14.5706 22.4183 12.7788 20.8727 11.6736 19.5454C10.5302 18.1721 10.0835 16.9869 10.0835 15.5234Z" fill="white"/>
<defs>
<filter id="filter0_b_10492_24306" x="-40" y="-40" width="116" height="116" filterUnits="userSpaceOnUse" color-interpolation-filters="sRGB">
<feFlood flood-opacity="0" result="BackgroundImageFix"/>
<feGaussianBlur in="BackgroundImageFix" stdDeviation="20"/>
<feComposite in2="SourceAlpha" operator="in" result="effect1_backgroundBlur_10492_24306"/>
<feBlend mode="normal" in="SourceGraphic" in2="effect1_backgroundBlur_10492_24306" result="shape"/>
</filter>
</defs>
</svg>
