<svg width="24" height="24" viewBox="0 0 24 24" fill="none" xmlns="http://www.w3.org/2000/svg">
<path d="M19.579 13.4364C19.6165 13.4643 19.647 13.5007 19.668 13.5425C19.6889 13.5843 19.6999 13.6304 19.6998 13.6772V18.7765C19.6998 18.7871 19.6993 18.7976 19.6982 18.8081C19.7136 19.124 19.6216 19.4357 19.4373 19.6926C19.2529 19.9495 18.9871 20.1364 18.6829 20.2229C18.3788 20.3094 18.0544 20.2905 17.7624 20.1691C17.4704 20.0477 17.2282 19.8311 17.075 19.5545C16.9218 19.2778 16.8668 18.9575 16.9189 18.6456C16.971 18.3338 17.1271 18.0487 17.3619 17.8369C17.5966 17.6251 17.8962 17.4989 18.2117 17.479C18.5273 17.4591 18.8403 17.5466 19.0998 17.7273V15.6805L15.2846 16.8406V19.7166C15.2847 19.7272 15.2841 19.7377 15.283 19.7482C15.2984 20.0641 15.2065 20.3758 15.0221 20.6327C14.8378 20.8896 14.5719 21.0765 14.2678 21.163C13.9637 21.2495 13.6392 21.2306 13.3472 21.1092C13.0553 20.9878 12.813 20.7712 12.6598 20.4945C12.5067 20.2179 12.4517 19.8976 12.5038 19.5857C12.5558 19.2739 12.712 18.9888 12.9467 18.777C13.1815 18.5652 13.481 18.439 13.7966 18.4191C14.1121 18.3992 14.4251 18.4867 14.6846 18.6674V15.0173C14.6846 14.9528 14.7054 14.8901 14.7439 14.8384C14.7824 14.7866 14.8365 14.7487 14.8982 14.7301L19.3134 13.39C19.3582 13.3765 19.4056 13.3736 19.4517 13.3817C19.4978 13.3897 19.5414 13.4085 19.579 13.4364ZM15.2846 16.2141L19.0998 15.054V14.0804L15.2846 15.2405V16.2141ZM13.8846 19.0166C13.6724 19.0166 13.4689 19.1009 13.3189 19.2509C13.1689 19.401 13.0846 19.6045 13.0846 19.8166C13.0846 20.0288 13.1689 20.2323 13.3189 20.3823C13.4689 20.5324 13.6724 20.6167 13.8846 20.6167C14.0968 20.6167 14.3003 20.5324 14.4503 20.3823C14.6003 20.2323 14.6846 20.0288 14.6846 19.8166C14.6846 19.6045 14.6003 19.401 14.4503 19.2509C14.3003 19.1009 14.0968 19.0166 13.8846 19.0166ZM17.4998 18.8765C17.4998 19.0887 17.584 19.2922 17.7341 19.4423C17.8841 19.5923 18.0876 19.6766 18.2998 19.6766C18.512 19.6766 18.7154 19.5923 18.8655 19.4423C19.0155 19.2922 19.0998 19.0887 19.0998 18.8765C19.0998 18.6644 19.0155 18.4609 18.8655 18.3108C18.7154 18.1608 18.512 18.0765 18.2998 18.0765C18.0876 18.0765 17.8841 18.1608 17.7341 18.3108C17.584 18.4609 17.4998 18.6644 17.4998 18.8765Z" fill="white" stroke="white" stroke-width="0.4"/>
<path d="M14.6749 13.8768C15.1388 13.6276 15.6697 13.4858 16.2351 13.4858H16.237C16.2945 13.4858 16.3214 13.4168 16.2792 13.3784C15.6912 12.8507 15.0195 12.4245 14.2916 12.1173C14.2839 12.1134 14.2763 12.1115 14.2686 12.1077C15.4589 11.2433 16.2332 9.83838 16.2332 8.2533C16.2332 5.62749 14.1095 3.5 11.4895 3.5C8.8694 3.5 6.74766 5.62749 6.74766 8.2533C6.74766 9.83838 7.52199 11.2433 8.71415 12.1077C8.70648 12.1115 8.69882 12.1134 8.69115 12.1173C7.83441 12.4795 7.06583 12.9989 6.40458 13.6621C5.74716 14.3183 5.22376 15.0963 4.86359 15.9525C4.50923 16.791 4.31798 17.6893 4.3001 18.5994C4.29959 18.6199 4.30317 18.6402 4.31065 18.6593C4.31813 18.6783 4.32934 18.6957 4.34363 18.7103C4.35792 18.725 4.37499 18.7366 4.39385 18.7445C4.41271 18.7525 4.43297 18.7566 4.45343 18.7566H5.6015C5.68392 18.7566 5.75292 18.6895 5.75484 18.6071C5.79317 17.1274 6.38542 15.7417 7.43383 14.6913C8.51674 13.6046 9.95806 13.0066 11.4914 13.0066C12.5781 13.0066 13.6208 13.3075 14.5197 13.871C14.5428 13.8855 14.5693 13.8937 14.5966 13.8947C14.6238 13.8957 14.6508 13.8895 14.6749 13.8768ZM11.4914 11.5499C10.6136 11.5499 9.78748 11.2069 9.16457 10.584C8.85808 10.2783 8.61511 9.91496 8.44965 9.51496C8.28419 9.11496 8.19951 8.68617 8.20049 8.2533C8.20049 7.37356 8.54357 6.54556 9.16457 5.92265C9.78556 5.29974 10.6116 4.95666 11.4914 4.95666C12.3711 4.95666 13.1953 5.29974 13.8182 5.92265C14.1247 6.22834 14.3677 6.59165 14.5331 6.99165C14.6986 7.39165 14.7833 7.82043 14.7823 8.2533C14.7823 9.13305 14.4392 9.96104 13.8182 10.584C13.1953 11.2069 12.3692 11.5499 11.4914 11.5499Z" fill="white"/>
</svg>
