<svg width="48" height="48" viewBox="0 0 48 48" fill="none" xmlns="http://www.w3.org/2000/svg">
<g filter="url(#filter0_b_5_57)">
<circle cx="24" cy="24" r="24" fill="#101820"/>
</g>
<path d="M31.5 26.5L34 29L31.5 31.5" stroke="white" stroke-width="1.3" stroke-linecap="round" stroke-linejoin="round"/>
<path d="M31.5 16.5L34 19L31.5 21.5" stroke="white" stroke-width="1.3" stroke-linecap="round" stroke-linejoin="round"/>
<path d="M14.7459 29H18.437C19.1229 29 19.7982 28.8307 20.4029 28.507C21.0076 28.1834 21.5231 27.7155 21.9036 27.1448L24 24" stroke="white" stroke-width="1.3" stroke-linecap="round" stroke-linejoin="round"/>
<path d="M14.7459 19H18.437C19.1229 19 19.7982 19.1693 20.4029 19.493C21.0076 19.8166 21.5231 20.2845 21.9036 20.8552L26.0964 27.1448C26.4769 27.7155 26.9923 28.1834 27.5971 28.507C28.2018 28.8307 28.8771 29 29.563 29H32.3333" stroke="white" stroke-width="1.3" stroke-linecap="round" stroke-linejoin="round"/>
<path d="M32.3333 19H29.563C28.8771 19 28.2018 19.1693 27.5971 19.493C26.9923 19.8166 26.4769 20.2845 26.0964 20.8552L25.6667 21.5" stroke="white" stroke-width="1.3" stroke-linecap="round" stroke-linejoin="round"/>
<defs>
<filter id="filter0_b_5_57" x="-40" y="-40" width="128" height="128" filterUnits="userSpaceOnUse" color-interpolation-filters="sRGB">
<feFlood flood-opacity="0" result="BackgroundImageFix"/>
<feGaussianBlur in="BackgroundImageFix" stdDeviation="20"/>
<feComposite in2="SourceAlpha" operator="in" result="effect1_backgroundBlur_5_57"/>
<feBlend mode="normal" in="SourceGraphic" in2="effect1_backgroundBlur_5_57" result="shape"/>
</filter>
</defs>
</svg>
