<svg width="24" height="24" viewBox="0 0 24 24" fill="none" xmlns="http://www.w3.org/2000/svg">
<path fill-rule="evenodd" clip-rule="evenodd" d="M14.8245 12.2703V6.32432C14.8245 4.76449 13.56 3.5 12.0002 3.5C10.4403 3.5 9.17585 4.76449 9.17585 6.32432V6.73684H11.4454C11.736 6.73684 11.9717 6.97248 11.9717 7.26316C11.9717 7.55383 11.736 7.78947 11.4454 7.78947H9.17585V8.8421H11.4454C11.736 8.8421 11.9717 9.07774 11.9717 9.36842C11.9717 9.6591 11.736 9.89474 11.4454 9.89474H9.17585V10.9474H11.4454C11.736 10.9474 11.9717 11.183 11.9717 11.4737C11.9717 11.7644 11.736 12 11.4454 12H9.17585V12.2703C9.17585 13.8301 10.4403 15.0946 12.0002 15.0946C13.56 15.0946 14.8245 13.8301 14.8245 12.2703ZM12.0002 2C9.61191 2 7.67585 3.93606 7.67585 6.32432V12.2703C7.67585 14.6585 9.61191 16.5946 12.0002 16.5946C14.3884 16.5946 16.3245 14.6585 16.3245 12.2703V6.32432C16.3245 3.93607 14.3884 2 12.0002 2ZM5.72314 11.7297C5.72314 11.3155 5.38736 10.9797 4.97314 10.9797C4.55893 10.9797 4.22314 11.3155 4.22314 11.7297C4.22314 12.751 4.4243 13.7623 4.81514 14.7059C5.20597 15.6494 5.77882 16.5068 6.50098 17.2289C7.22315 17.9511 8.08048 18.5239 9.02403 18.9148C9.72355 19.2045 10.4603 19.39 11.2107 19.4666V20.9189H12.7897V19.4666C13.5401 19.39 14.2768 19.2045 14.9763 18.9148C15.9199 18.5239 16.7772 17.9511 17.4994 17.2289C18.2215 16.5068 18.7944 15.6494 19.1852 14.7059C19.576 13.7623 19.7772 12.751 19.7772 11.7297C19.7772 11.3155 19.4414 10.9797 19.0272 10.9797C18.613 10.9797 18.2772 11.3155 18.2772 11.7297C18.2772 12.554 18.1148 13.3703 17.7994 14.1318C17.4839 14.8934 17.0216 15.5854 16.4387 16.1683C15.8558 16.7511 15.1638 17.2135 14.4023 17.5289C13.6407 17.8444 12.8245 18.0068 12.0002 18.0068C11.1759 18.0068 10.3596 17.8444 9.59806 17.5289C8.83649 17.2135 8.14452 16.7511 7.56164 16.1683C6.97877 15.5854 6.5164 14.8934 6.20095 14.1318C5.8855 13.3703 5.72314 12.554 5.72314 11.7297ZM9.29758 21.4595C9.29758 21.1609 9.53959 20.9189 9.83812 20.9189H14.1624C14.461 20.9189 14.703 21.1609 14.703 21.4595C14.703 21.758 14.461 22 14.1624 22H9.83812C9.53959 22 9.29758 21.758 9.29758 21.4595Z" fill="white"/>
</svg>
