<svg width="16" height="17" viewBox="0 0 16 17" fill="none" xmlns="http://www.w3.org/2000/svg">
<path d="M8.70433 2.96088L8.21266 1.96505C8.13141 1.79213 7.87725 1.78588 7.78766 1.96505L7.296 2.96088L6.20641 3.11713C6.01266 3.1463 5.92933 3.38588 6.07308 3.52963L6.86475 4.30047L6.67725 5.38588C6.64808 5.57963 6.84808 5.72963 7.02725 5.64005L8.00433 5.12338L8.97516 5.63172C9.15433 5.7213 9.35641 5.5713 9.32516 5.37755L9.13766 4.29213L9.92933 3.52963C10.071 3.38797 9.98975 3.14838 9.796 3.11713L8.70641 2.96088H8.70433ZM6.66683 7.16713C6.29808 7.16713 6.00016 7.46505 6.00016 7.8338V13.0459C6.00016 13.4147 6.29808 13.7126 6.66683 13.7126H9.3335C9.70225 13.7126 10.0002 13.4147 10.0002 13.0459V7.8338C10.0002 7.46505 9.70225 7.16713 9.3335 7.16713H6.66683ZM2.00016 8.50047C1.63141 8.50047 1.3335 8.79838 1.3335 9.16713V13.0459C1.3335 13.4147 1.63141 13.7126 2.00016 13.7126H4.66683C5.03558 13.7126 5.3335 13.4147 5.3335 13.0459V9.16713C5.3335 8.79838 5.03558 8.50047 4.66683 8.50047H2.00016ZM10.6668 10.5005V13.0459C10.6668 13.4147 10.9647 13.7126 11.3335 13.7126H14.0002C14.3689 13.7126 14.6668 13.4147 14.6668 13.0459V10.5005C14.6668 10.1317 14.3689 9.8338 14.0002 9.8338H11.3335C10.9647 9.8338 10.6668 10.1317 10.6668 10.5005Z" fill="white"/>
</svg>
