<svg width="36" height="36" viewBox="0 0 36 36" fill="none" xmlns="http://www.w3.org/2000/svg">
<g filter="url(#filter0_b_10492_24356)">
<circle cx="18" cy="18" r="18" fill="#00B0FF" fill-opacity="0.33"/>
</g>
<path d="M23.625 19.875L25.5 21.75L23.625 23.625" stroke="white" stroke-width="1.3" stroke-linecap="round" stroke-linejoin="round"/>
<path d="M23.625 12.375L25.5 14.25L23.625 16.125" stroke="white" stroke-width="1.3" stroke-linecap="round" stroke-linejoin="round"/>
<path d="M11.0593 21.75H13.8276C14.342 21.75 14.8485 21.623 15.3021 21.3803C15.7556 21.1375 16.1422 20.7866 16.4276 20.3586L17.9999 18" stroke="white" stroke-width="1.3" stroke-linecap="round" stroke-linejoin="round"/>
<path d="M11.0593 14.25H13.8276C14.342 14.25 14.8485 14.377 15.3021 14.6197C15.7556 14.8625 16.1422 15.2134 16.4276 15.6414L19.5722 20.3586C19.8575 20.7866 20.2441 21.1375 20.6977 21.3803C21.1513 21.623 21.6577 21.75 22.1722 21.75H24.2499" stroke="white" stroke-width="1.3" stroke-linecap="round" stroke-linejoin="round"/>
<path d="M24.25 14.25H22.1723C21.6578 14.25 21.1514 14.377 20.6978 14.6197C20.2443 14.8625 19.8576 15.2134 19.5723 15.6414L19.25 16.125" stroke="white" stroke-width="1.3" stroke-linecap="round" stroke-linejoin="round"/>
<defs>
<filter id="filter0_b_10492_24356" x="-40" y="-40" width="116" height="116" filterUnits="userSpaceOnUse" color-interpolation-filters="sRGB">
<feFlood flood-opacity="0" result="BackgroundImageFix"/>
<feGaussianBlur in="BackgroundImageFix" stdDeviation="20"/>
<feComposite in2="SourceAlpha" operator="in" result="effect1_backgroundBlur_10492_24356"/>
<feBlend mode="normal" in="SourceGraphic" in2="effect1_backgroundBlur_10492_24356" result="shape"/>
</filter>
</defs>
</svg>
