<svg width="32" height="32" viewBox="0 0 32 32" fill="none" xmlns="http://www.w3.org/2000/svg">
<rect width="32" height="32" rx="16" fill="black" fill-opacity="0.33"/>
<path fill-rule="evenodd" clip-rule="evenodd" d="M14.6913 21.1704C14.7996 21.2154 14.9158 21.2385 15.0331 21.2384C15.1507 21.23 15.2656 21.1983 15.3708 21.1451C15.5339 21.0781 15.6733 20.9642 15.7714 20.8178C15.8696 20.6714 15.922 20.4991 15.922 20.3228V11.6562C15.9231 11.478 15.8706 11.3035 15.7713 11.1555C15.672 11.0075 15.5306 10.8927 15.3653 10.8261C15.2 10.7595 15.0184 10.7441 14.8443 10.782C14.6701 10.8199 14.5114 10.9092 14.3886 11.0384L11.6595 13.3228H9.33945C9.1037 13.3228 8.87761 13.4165 8.71091 13.5832C8.54421 13.7499 8.45056 13.976 8.45056 14.2117V17.7673C8.45056 18.003 8.54421 18.2291 8.71091 18.3958C8.87761 18.5625 9.1037 18.6562 9.33945 18.6562H11.6239L14.402 20.9762C14.4846 21.0594 14.583 21.1254 14.6913 21.1704ZM23.3721 13.4286C23.6088 13.6653 23.6088 14.0491 23.3721 14.2858L21.6577 16.0001L23.372 17.7144C23.6087 17.951 23.6087 18.3348 23.372 18.5715C23.1353 18.8082 22.7516 18.8082 22.5149 18.5715L20.8006 16.8572L19.0864 18.5715C18.8497 18.8082 18.4659 18.8082 18.2292 18.5715C17.9925 18.3348 17.9925 17.951 18.2292 17.7143L19.9435 16.0001L18.2292 14.2858C17.9925 14.0491 17.9925 13.6653 18.2292 13.4286C18.4658 13.192 18.8496 13.192 19.0863 13.4286L20.8006 15.1429L22.5149 13.4286C22.7516 13.1919 23.1354 13.1919 23.3721 13.4286Z" fill="white"/>
</svg>
