<svg width="37" height="36" viewBox="0 0 37 36" fill="none" xmlns="http://www.w3.org/2000/svg">
<g filter="url(#filter0_b_10492_24291)">
<circle cx="18.5" cy="18" r="18" fill="white" fill-opacity="0.16"/>
</g>
<path d="M24.125 19.875L26 21.75L24.125 23.625" stroke="white" stroke-width="1.3" stroke-linecap="round" stroke-linejoin="round"/>
<path d="M24.125 12.375L26 14.25L24.125 16.125" stroke="white" stroke-width="1.3" stroke-linecap="round" stroke-linejoin="round"/>
<path d="M11.5593 21.75H14.3276C14.842 21.75 15.3485 21.623 15.8021 21.3803C16.2556 21.1375 16.6422 20.7866 16.9276 20.3586L18.4999 18" stroke="white" stroke-width="1.3" stroke-linecap="round" stroke-linejoin="round"/>
<path d="M11.5593 14.25H14.3276C14.842 14.25 15.3485 14.377 15.8021 14.6197C16.2556 14.8625 16.6422 15.2134 16.9276 15.6414L20.0722 20.3586C20.3575 20.7866 20.7441 21.1375 21.1977 21.3803C21.6513 21.623 22.1577 21.75 22.6722 21.75H24.7499" stroke="white" stroke-width="1.3" stroke-linecap="round" stroke-linejoin="round"/>
<path d="M24.75 14.25H22.6723C22.1578 14.25 21.6514 14.377 21.1978 14.6197C20.7443 14.8625 20.3576 15.2134 20.0723 15.6414L19.75 16.125" stroke="white" stroke-width="1.3" stroke-linecap="round" stroke-linejoin="round"/>
<defs>
<filter id="filter0_b_10492_24291" x="-39.5" y="-40" width="116" height="116" filterUnits="userSpaceOnUse" color-interpolation-filters="sRGB">
<feFlood flood-opacity="0" result="BackgroundImageFix"/>
<feGaussianBlur in="BackgroundImageFix" stdDeviation="20"/>
<feComposite in2="SourceAlpha" operator="in" result="effect1_backgroundBlur_10492_24291"/>
<feBlend mode="normal" in="SourceGraphic" in2="effect1_backgroundBlur_10492_24291" result="shape"/>
</filter>
</defs>
</svg>
