<svg width="15" height="15" viewBox="0 0 15 15" fill="none" xmlns="http://www.w3.org/2000/svg">
<g clip-path="url(#clip0_10055_23702)">
<path fill-rule="evenodd" clip-rule="evenodd" d="M9.21885 5.21C9.21885 6.1667 8.45785 6.92779 7.50076 6.92779C6.54367 6.92779 5.78268 6.1667 5.78268 5.21C5.78268 4.25299 6.54399 3.49163 7.50076 3.49163C8.45754 3.49163 9.21885 4.25299 9.21885 5.21ZM7.50076 8.12779C9.12048 8.12779 10.4188 6.82956 10.4188 5.21C10.4188 3.59045 9.12048 2.29163 7.50076 2.29163C5.88104 2.29163 4.58268 3.59045 4.58268 5.21C4.58268 6.82956 5.88104 8.12779 7.50076 8.12779ZM7.49953 9.91114C8.13233 9.91093 8.75494 10.0705 9.30962 10.3751C9.86431 10.6796 10.3331 11.1193 10.6726 11.6534C10.8503 11.933 11.2211 12.0156 11.5008 11.8379C11.7805 11.6601 11.8631 11.2893 11.6853 11.0096C11.2375 10.3051 10.619 9.72499 9.88717 9.32319C9.15538 8.92139 8.33398 8.71086 7.49913 8.71114C6.66428 8.71142 5.84302 8.92249 5.11149 9.32478C4.37997 9.72707 3.76186 10.3076 3.31448 11.0124C3.13691 11.2922 3.21976 11.6629 3.49953 11.8405C3.77931 12.0181 4.15006 11.9352 4.32763 11.6555C4.66674 11.1212 5.13525 10.6812 5.68974 10.3763C6.24423 10.0713 6.86673 9.91135 7.49953 9.91114Z" fill="#BEBEBE"/>
</g>
<defs>
<clipPath id="clip0_10055_23702">
<rect width="14" height="14" fill="white" transform="translate(0.5 0.0999756)"/>
</clipPath>
</defs>
</svg>
