<svg width="360" height="780" viewBox="0 0 360 780" fill="none" xmlns="http://www.w3.org/2000/svg">
<rect width="360" height="780" fill="#121212"/>
<path d="M132 377.447C132 365.039 132 358.836 134.414 354.097C136.538 349.928 139.927 346.539 144.096 344.415C148.835 342 155.038 342 167.446 342H192.553C204.961 342 211.164 342 215.903 344.415C220.072 346.539 223.461 349.928 225.585 354.097C228 358.836 228 365.039 228 377.447V402.554C228 414.962 228 421.165 225.585 425.904C223.461 430.073 220.072 433.462 215.903 435.586C211.164 438 204.961 438 192.553 438H167.446C155.038 438 148.835 438 144.096 435.586C139.927 433.462 136.538 430.073 134.414 425.904C132 421.165 132 414.962 132 402.554V377.447Z" fill="#00B0FF"/>
<path opacity="0.3" d="M180 429C201.539 429 219 411.54 219 390C219 368.461 201.539 351 180 351C158.46 351 141 368.461 141 390C141 411.54 158.46 429 180 429Z" fill="#00CCFF"/>
<path opacity="0.5" d="M180 417C194.911 417 207 404.912 207 390C207 375.089 194.911 363 180 363C165.088 363 153 375.089 153 390C153 404.912 165.088 417 180 417Z" fill="#00CCFF"/>
<mask id="mask0_14190_8613" style="mask-type:alpha" maskUnits="userSpaceOnUse" x="131" y="342" width="97" height="97">
<path d="M132 377.447C132 365.039 132 358.836 134.414 354.097C136.538 349.928 139.927 346.539 144.096 344.415C148.835 342 155.038 342 167.446 342H192.553C204.961 342 211.164 342 215.903 344.415C220.072 346.539 223.461 349.928 225.585 354.097C228 358.836 228 365.039 228 377.447V402.554C228 414.962 228 421.165 225.585 425.904C223.461 430.073 220.072 433.462 215.903 435.586C211.164 438 204.961 438 192.553 438H167.446C155.038 438 148.835 438 144.096 435.586C139.927 433.462 136.538 430.073 134.414 425.904C132 421.165 132 414.962 132 402.554V377.447Z" fill="#00B0FF"/>
</mask>
<g mask="url(#mask0_14190_8613)">
<path d="M198.533 356.453C198.08 354.933 196.373 354.267 195.013 355.067C193.067 356.267 190.187 358.4 186.64 361.947L185.013 360.907C185.467 359.813 185.093 358.533 184.08 357.893C182.933 357.173 181.413 357.52 180.693 358.64C179.973 359.787 180.293 361.307 181.44 362.027C182.453 362.667 183.787 362.48 184.56 361.6L186.027 362.533C184.587 364.027 183.04 365.733 181.413 367.707L180.107 366.88C180.56 365.787 180.187 364.507 179.173 363.867C178.027 363.147 176.507 363.467 175.787 364.613C175.067 365.76 175.387 367.28 176.533 368C177.573 368.64 178.88 368.427 179.653 367.573L180.88 368.347C179.547 370 178.187 371.813 176.747 373.84L175.04 372.747C175.493 371.653 175.12 370.373 174.107 369.733C172.96 369.013 171.44 369.36 170.72 370.48C170 371.627 170.347 373.147 171.493 373.867C172.507 374.533 173.84 374.32 174.613 373.44L176.293 374.507C175.067 376.267 173.787 378.187 172.507 380.24L170.773 379.147C171.227 378.08 170.853 376.773 169.813 376.133C168.667 375.413 167.147 375.76 166.427 376.88C165.707 378.027 166.053 379.547 167.173 380.267C168.187 380.907 169.52 380.693 170.32 379.813L172.053 380.933C170.907 382.773 169.76 384.773 168.56 386.853L167.2 386C167.653 384.933 167.28 383.653 166.267 382.987C165.12 382.24 163.6 382.587 162.88 383.733C162.16 384.88 162.507 386.4 163.653 387.12C164.667 387.76 166 387.547 166.773 386.693L168.187 387.573C167.12 389.493 166.027 391.547 164.933 393.68L163.52 392.773C163.973 391.68 163.6 390.4 162.587 389.76C161.44 389.04 159.92 389.387 159.2 390.507C158.48 391.653 158.8 393.173 159.947 393.893C160.96 394.56 162.293 394.347 163.067 393.467L164.56 394.427C164.187 395.173 163.813 395.893 163.44 396.667C163.04 397.44 162.827 398.32 162.747 399.173C162.64 400.507 162.933 401.84 163.6 403.04L165.36 406.213C166.267 407.813 166.533 409.68 166.16 411.467L160.48 438H163.92L172.133 398.4L172.88 394.853C172.347 394.507 172.08 393.84 172.213 393.2C172.4 392.32 173.28 391.76 174.133 391.947C175.013 392.133 175.573 393.013 175.413 393.893C175.28 394.533 174.747 395.013 174.133 395.147L173.44 398.48L165.253 438H169.387L177.493 398.933L180.453 384.747C179.92 384.373 179.653 383.733 179.787 383.093C179.973 382.213 180.853 381.653 181.707 381.84C182.587 382.027 183.147 382.88 182.96 383.76C182.827 384.427 182.32 384.88 181.707 385.013L178.773 399.173L170.72 438H174.853L182.72 400.16L188.027 374.64C187.493 374.293 187.227 373.627 187.36 372.987C187.547 372.107 188.427 371.547 189.28 371.733C190.16 371.92 190.72 372.8 190.533 373.653C190.4 374.32 189.893 374.8 189.28 374.933L183.92 400.587L176.187 438H180.56L184.187 417.387C184.453 415.76 185.253 414.293 186.48 413.227L194.267 406.533C194.4 406.4 194.56 406.267 194.667 406.133C195.867 404.88 196.507 403.147 196.373 401.413L194.853 382.427C194.64 379.627 195.6 376.853 197.52 374.827L200.4 371.76C201.627 370.453 202.053 368.613 201.573 366.933L198.533 356.453Z" fill="white"/>
</g>
<path fill-rule="evenodd" clip-rule="evenodd" d="M197.942 467.256L195.873 467.256V485.496H192.833V467.256L190.748 467.256H187.388V485.496H184.316L173.564 480.28L173.596 480.248V477.24C174.535 476.6 175.954 475.704 177.852 474.552C176.508 474.403 175.378 473.912 174.46 473.08C173.564 472.227 173.116 471.107 173.116 469.72C173.116 468.099 173.66 466.808 174.748 465.848C175.836 464.867 177.308 464.376 179.164 464.376C179.783 464.376 180.402 464.44 181.02 464.568V467.096C180.7 467.032 180.156 467 179.388 467C178.45 467 177.692 467.245 177.116 467.736C176.54 468.227 176.252 468.92 176.252 469.816C176.252 470.733 176.54 471.437 177.116 471.928C177.692 472.397 178.471 472.632 179.452 472.632C180.476 472.632 181.404 472.44 182.236 472.056C182.898 471.672 183.591 471.288 184.316 470.904V464.696L189.473 464.696H192.833V463.864C192.833 461.837 192.022 460.259 190.401 459.128C188.801 457.997 186.7 457.432 184.097 457.432C181.622 457.432 180.385 457.976 180.385 459.064C180.385 460.152 181.708 460.696 184.353 460.696C185.42 460.696 186.433 460.643 187.393 460.536V462.68C186.561 462.872 185.388 462.968 183.873 462.968C179.606 462.968 177.473 461.667 177.473 459.064C177.473 457.784 178.081 456.792 179.297 456.088C180.492 455.363 182.092 455 184.097 455C187.425 455 190.22 455.853 192.481 457.56C194.742 459.267 195.873 461.379 195.873 463.896V464.696H199.233L217.558 464.696V467.256H214.326V485.496H211.254V485.4C211.126 484.205 210.934 483.075 210.678 482.008C210.443 480.92 210.113 479.885 209.686 478.904C209.259 477.923 208.705 477.144 208.022 476.568C207.361 475.971 206.603 475.672 205.75 475.672C204.79 475.672 204.054 475.971 203.542 476.568C203.051 477.165 202.806 477.965 202.806 478.968C202.806 479.395 202.849 479.907 202.934 480.504H199.958C199.83 479.971 199.766 479.373 199.766 478.712C199.766 477.069 200.267 475.693 201.27 474.584C202.273 473.475 203.649 472.92 205.398 472.92C208.086 472.92 210.038 474.349 211.254 477.208V467.256H197.942ZM184.316 473.912V482.488L176.668 478.648L184.316 473.912ZM172.296 467.256H168.936V485.496H165.896V469.656C165.896 468.824 165.757 468.216 165.48 467.832C165.202 467.448 164.69 467.256 163.944 467.256L163.818 467.256H160.874C161.002 467.939 161.066 468.664 161.066 469.432C161.066 471.352 160.373 472.739 158.986 473.592V485.496H156.01L147.818 481.624V478.424C150.378 476.611 152.874 475.245 155.306 474.328C153.386 474.2 152.074 473.293 151.37 471.608C151.071 472.397 150.549 473.059 149.802 473.592C149.077 474.125 148.17 474.392 147.082 474.392C146.079 474.392 145.151 474.179 144.298 473.752V471.096C145.215 471.501 146.069 471.704 146.858 471.704C148.01 471.704 148.81 471.352 149.258 470.648C149.706 469.944 149.93 468.813 149.93 467.256H142.442V464.696L162.536 464.696H164.2C165.096 464.696 165.778 465.133 166.248 466.008C166.056 464.899 165.96 463.853 165.96 462.872V462.04H168.936V464.696H172.296V467.256ZM158.09 469.176C158.09 471.011 157.322 471.928 155.786 471.928C154.805 471.928 154.069 471.512 153.578 470.68C153.109 469.848 152.885 468.707 152.906 467.256H157.898C158.026 467.853 158.09 468.493 158.09 469.176ZM156.01 476.92V482.584L150.57 479.896C152.469 478.595 154.282 477.603 156.01 476.92Z" fill="white"/>
</svg>
