<svg width="24" height="25" viewBox="0 0 24 25" fill="none" xmlns="http://www.w3.org/2000/svg">
<path d="M5.00654 10.6451C5.00654 10.229 4.66929 9.89178 4.25327 9.89178C3.83725 9.89178 3.5 10.229 3.5 10.6451V19.7918C3.5 20.7268 4.265 21.4918 5.20001 21.4918H14.348C14.7634 21.4918 15.1 21.1551 15.1 20.7398C15.1 20.3245 14.7634 19.9878 14.348 19.9878H5.00654V10.6451Z" fill="white"/>
<path d="M17.4144 11.2918C17.4144 11.7021 17.0818 12.0347 16.6716 12.0347H14.443V14.2632C14.443 14.6735 14.1104 15.0061 13.7001 15.0061C13.2899 15.0061 12.9573 14.6735 12.9573 14.2632V12.0347H10.7287C10.3184 12.0347 9.98584 11.7021 9.98584 11.2918C9.98584 10.8815 10.3184 10.5489 10.7287 10.5489H12.9573V8.32037C12.9573 7.9101 13.2899 7.57751 13.7001 7.57751C14.1104 7.57751 14.443 7.9101 14.443 8.32037V10.5489H16.6716C17.0818 10.5489 17.4144 10.8815 17.4144 11.2918Z" fill="white"/>
<path d="M8.59991 5.24182H18.7999C19.3207 5.24182 19.7499 5.67104 19.7499 6.19183V16.3919C19.7499 16.9126 19.3207 17.3419 18.7999 17.3419H8.59991C8.07912 17.3419 7.6499 16.9126 7.6499 16.3919V6.19183C7.6499 5.67104 8.07912 5.24182 8.59991 5.24182Z" stroke="white" stroke-width="1.5"/>
</svg>
