<svg width="75" height="24" viewBox="0 0 75 24" fill="none" xmlns="http://www.w3.org/2000/svg">
<mask id="mask0_17800_22589" style="mask-type:alpha" maskUnits="userSpaceOnUse" x="0" y="0" width="25" height="24">
<path d="M0.65332 10.7812C0.65332 3.35808 4.08985 0 11.4346 0H13.8721C21.3338 0 24.6533 3.38697 24.6533 10.7812V13.2187C24.6533 20.2843 21.0161 24 13.8721 24H11.4346C4.1765 24 0.65332 20.6021 0.65332 13.2187V10.7812Z" fill="#11A4D0"/>
</mask>
<g mask="url(#mask0_17800_22589)">
<path d="M24.6533 0H0.65332V24H24.6533V0Z" fill="#00B0FF"/>
<path opacity="0.3" d="M12.6533 21.3842C17.8359 21.3842 22.0373 17.1828 22.0373 12.0002C22.0373 6.81757 17.8359 2.61621 12.6533 2.61621C7.47065 2.61621 3.26929 6.81757 3.26929 12.0002C3.26929 17.1828 7.47065 21.3842 12.6533 21.3842Z" fill="#00CCFF"/>
<path opacity="0.5" d="M12.6534 18.7439C16.378 18.7439 19.3974 15.7245 19.3974 11.9999C19.3974 8.27525 16.378 5.25586 12.6534 5.25586C8.92882 5.25586 5.90942 8.27525 5.90942 11.9999C5.90942 15.7245 8.92882 18.7439 12.6534 18.7439Z" fill="#00CCFF"/>
<path d="M17.2854 3.6002C17.1654 3.2162 16.7334 3.0482 16.3974 3.2642C15.9174 3.5522 15.1974 4.1042 14.3094 4.9922L13.9014 4.7282C14.0214 4.4642 13.9254 4.1282 13.6614 3.9842C13.3734 3.7922 12.9894 3.8882 12.8214 4.1762C12.6294 4.4642 12.7254 4.8482 13.0134 5.0162C13.2774 5.1842 13.5894 5.1362 13.8054 4.8962L14.1654 5.1362C13.8054 5.4962 13.4214 5.9282 13.0134 6.4322L12.6774 6.2162C12.7974 5.9522 12.7014 5.6162 12.4374 5.4722C12.1494 5.2802 11.7654 5.3762 11.5974 5.6642C11.4054 5.9522 11.5014 6.3362 11.7894 6.5042C12.0534 6.6722 12.3654 6.6242 12.5814 6.3842L12.8934 6.5762C12.5574 6.9842 12.2214 7.4402 11.8614 7.9442L11.4294 7.6802C11.5494 7.4162 11.4534 7.0802 11.1894 6.9362C10.9014 6.7442 10.5174 6.8402 10.3494 7.1282C10.1574 7.4162 10.2534 7.8002 10.5414 7.9682C10.8054 8.1362 11.1174 8.0882 11.3334 7.8482L11.7414 8.1122C11.4294 8.5442 11.1174 9.0242 10.8054 9.5522L10.3734 9.2642C10.4934 9.0002 10.3974 8.6642 10.1334 8.5202C9.84537 8.3282 9.46137 8.4242 9.29337 8.7122C9.10137 9.0002 9.19737 9.3842 9.48537 9.5522C9.74937 9.7202 10.0614 9.6722 10.2774 9.4322L10.7094 9.7202C10.4214 10.1762 10.1334 10.6802 9.84537 11.2082L9.50937 10.9922C9.62937 10.7282 9.53337 10.3922 9.26937 10.2482C8.98137 10.0562 8.59737 10.1522 8.42937 10.4402C8.23737 10.7282 8.33337 11.1122 8.62137 11.2802C8.88537 11.4482 9.19737 11.4002 9.41337 11.1602L9.77337 11.3762C9.50937 11.8562 9.24537 12.3602 8.95737 12.9122L8.59737 12.6962C8.71737 12.4322 8.62137 12.0962 8.35737 11.9522C8.06937 11.7602 7.68537 11.8562 7.51737 12.1442C7.32537 12.4322 7.42137 12.8162 7.70937 12.9842C7.97337 13.1522 8.28537 13.1042 8.50137 12.8642L8.88537 13.1042C8.78937 13.2962 8.69337 13.4642 8.59737 13.6562C8.50137 13.8482 8.45337 14.0642 8.42937 14.2802C8.40537 14.6162 8.47737 14.9522 8.64537 15.2402L9.07737 16.0322C9.29337 16.4402 9.36537 16.8962 9.26937 17.3522L7.82937 24.0002H8.69337L10.7334 14.0882L10.9254 13.2002C10.8054 13.1042 10.7334 12.9602 10.7574 12.7922C10.8054 12.5762 11.0214 12.4322 11.2374 12.4802C11.4534 12.5282 11.5974 12.7442 11.5494 12.9602C11.5254 13.1282 11.3814 13.2482 11.2374 13.2722L11.0694 14.1122L8.95737 24.0002H9.98937L12.0294 14.2322L12.7734 10.6802C12.6534 10.5842 12.5814 10.4162 12.6054 10.2722C12.6534 10.0562 12.8694 9.9122 13.0854 9.9602C13.3014 10.0082 13.4454 10.2242 13.3974 10.4402C13.3734 10.6082 13.2294 10.7282 13.0854 10.7522L12.3414 14.3042L10.3254 24.0002H11.3574L13.3254 14.5442L14.6694 8.1602C14.5494 8.0642 14.4774 7.9202 14.5014 7.7522C14.5494 7.5362 14.7654 7.3922 14.9814 7.4402C15.1974 7.4882 15.3414 7.7042 15.2934 7.9202C15.2694 8.0882 15.1254 8.2082 14.9814 8.2322L13.6374 14.6402L11.6934 24.0002H12.7734L13.6854 18.8402C13.7574 18.4322 13.9494 18.0722 14.2614 17.8082L16.2054 16.1282C16.2294 16.1042 16.2774 16.0562 16.3014 16.0322C16.6134 15.7202 16.7574 15.2882 16.7334 14.8562L16.3494 10.1042C16.3014 9.4082 16.5414 8.7122 17.0214 8.2082L17.7414 7.4402C18.0534 7.1042 18.1494 6.6482 18.0294 6.2402L17.2854 3.6002Z" fill="white"/>
</g>
<path d="M40.0741 8.70327C40.0741 8.3544 40.0373 8.00554 39.9639 7.65667H41.2859V6.24285H28.6533V7.65667H33.464C33.3355 8.81344 32.9499 10.1905 31.8482 10.1905C31.1872 10.1905 30.7282 9.7315 30.2875 9.19903L29.3143 10.2456C29.9203 11.0719 30.8567 11.6411 31.8482 11.6411C33.1151 11.6411 33.9047 10.8883 34.327 9.76823C34.6024 10.4476 35.0798 10.9984 35.7408 11.3289C34.2352 12.0818 32.7295 13.0916 31.7931 13.8812V15.5337L38.4215 18.6735L39.5416 17.5167L38.6786 17.1128V11.3289C39.5967 10.8515 40.0741 9.89676 40.0741 8.70327ZM35.2083 7.65667H38.3297C38.4215 7.91373 38.4583 8.24424 38.4583 8.61146C38.4583 9.49281 38.091 10.2089 37.1179 10.2089C35.8877 10.2089 35.2634 9.01541 35.2083 7.65667ZM37.1179 16.415L33.3722 14.6156C34.3637 13.8444 35.7224 12.9815 37.0628 12.3755V13.0549C37.0628 14.1199 37.1179 15.2583 37.2097 16.415H37.1179Z" fill="#121212"/>
<path d="M44.3603 18.1777V7.65667H46.4535V6.24285H44.3603V4.40672H42.7078V4.82903C42.7078 5.82054 42.8914 6.57336 43.0015 6.8855H42.9097C42.7445 6.66516 42.3589 6.24285 41.4592 6.24285H40.5595V7.65667H41.1103C42.1202 7.65667 42.6527 8.07899 42.6527 9.36428V18.1777H44.3603Z" fill="#121212"/>
<path d="M56.4099 17.1862L55.5836 16.7639V7.65667H57.6768V6.24285H53.9128V9.19903C52.9029 9.82331 51.7829 10.3742 50.8097 10.3742C49.5061 10.3742 48.7716 9.86003 48.7716 8.94197C48.7716 8.11571 49.3408 7.65667 50.2221 7.65667C50.6995 7.65667 51.1586 7.74848 51.6176 7.96882L52.1317 6.6468C51.5074 6.3163 50.7913 6.16941 50.0753 6.16941C48.2575 6.16941 47.1007 7.28945 47.1007 8.88688C47.1007 10.521 48.4227 11.384 49.8733 11.4575V11.5493C49.8733 11.5493 49.1021 11.8431 48.3126 12.3021L47.2843 12.908V14.3953L55.4 18.4164L56.4099 17.1862ZM54.0046 16.0111L49.1755 13.569L53.9128 10.9066V12.3388C53.9128 13.4589 53.9679 14.8176 54.078 16.0111H54.0046Z" fill="#121212"/>
<path d="M60.7492 18.1777V7.65667H62.824V6.24285H60.7308C60.4738 2.47878 57.1504 0 52.3948 0C49.659 0 48.0799 1.12004 48.0799 2.73584C48.0799 4.24147 49.457 5.23298 51.7338 5.23298C52.5968 5.23298 53.4965 5.06773 54.0473 4.88411V6.24285H55.608V3.3234L55.3877 3.19487C54.5247 3.50701 53.4414 3.85588 51.9909 3.85588C50.2465 3.85588 49.8059 3.28668 49.8059 2.7542C49.8059 2.00139 50.5954 1.45054 52.5233 1.45054C56.0487 1.45054 58.7845 3.04798 59.0232 6.24285H56.9484V7.65667H59.0416V18.1777H60.7492Z" fill="#121212"/>
<path d="M72.5601 18.1777V7.65667H74.6533V6.24285H62.1125V7.65667H70.8525V9.49281C70.8525 11.4207 70.9811 12.5224 71.0361 12.8346H70.9627C70.1732 11.3106 68.741 9.89676 66.556 9.89676C64.5362 9.89676 63.2509 11.0719 63.2509 12.9447C63.2509 13.771 63.5447 14.3953 64.0221 14.836L65.5277 14.1749C65.1972 13.8812 64.9585 13.4589 64.9585 12.9631C64.9585 12.0634 65.5461 11.4758 66.6661 11.4758C69.2367 11.4758 70.8525 15.0563 70.8525 17.8656V18.1777H72.5601Z" fill="#121212"/>
</svg>
