<svg width="32" height="32" viewBox="0 0 32 32" fill="none" xmlns="http://www.w3.org/2000/svg">
<rect width="32" height="32" rx="16" fill="black" fill-opacity="0.33"/>
<path d="M19.2748 20.5027C19.367 20.576 19.4807 20.6168 19.5983 20.6189C19.6863 20.624 19.7743 20.6074 19.8543 20.5703L19.859 20.568C20.7087 20.1475 21.4227 19.496 21.9191 18.6883C22.4155 17.8805 22.6741 16.9492 22.6654 16.0012C22.6566 15.0531 22.3808 14.1268 21.8696 13.3283C21.359 12.5308 20.6342 11.8931 19.7782 11.4883C19.7156 11.4565 19.6474 11.4373 19.5774 11.4318C19.5061 11.4262 19.4343 11.435 19.3664 11.4576C19.2985 11.4802 19.2358 11.5161 19.1821 11.5634C19.1283 11.6106 19.0846 11.6682 19.0534 11.7326C19.0223 11.797 19.0044 11.8671 19.0007 11.9385C18.9971 12.01 19.0079 12.0815 19.0324 12.1487C19.0568 12.216 19.0945 12.2776 19.1433 12.3301C19.1915 12.3819 19.2495 12.4237 19.3139 12.453C19.9881 12.7729 20.5585 13.2763 20.9599 13.9054C21.3615 14.535 21.5776 15.2651 21.5833 16.0119C21.5889 16.7587 21.384 17.492 20.9919 18.1276C20.5998 18.7633 20.0365 19.2755 19.3666 19.6056L19.3638 19.607C19.2571 19.6617 19.1718 19.7506 19.1217 19.8595C19.0715 19.9683 19.0593 20.0909 19.0871 20.2076C19.1148 20.3242 19.181 20.4281 19.2748 20.5027Z" fill="white"/>
<path d="M18.4818 18.4299L18.4845 18.6299C18.3674 18.6314 18.2531 18.5946 18.159 18.525C18.0649 18.4554 17.9961 18.3569 17.9633 18.2445C17.9305 18.1321 17.9355 18.0121 17.9774 17.9028C18.0192 17.7936 18.0957 17.7011 18.1951 17.6395C18.4708 17.4673 18.6973 17.2266 18.8525 16.9409C19.0077 16.6551 19.0862 16.3339 19.0804 16.0087C19.0746 15.6835 18.9847 15.3654 18.8194 15.0853C18.6547 14.8062 18.4207 14.5743 18.1402 14.4121C18.0778 14.3789 18.0227 14.3336 17.978 14.2789C17.9323 14.223 17.8983 14.1584 17.8782 14.0891C17.8581 14.0197 17.8522 13.947 17.8609 13.8753C17.8696 13.8036 17.8927 13.7344 17.9289 13.6719C17.965 13.6094 18.0134 13.5548 18.0712 13.5115C18.129 13.4682 18.1949 13.437 18.265 13.4198C18.3352 13.4026 18.4081 13.3998 18.4793 13.4115C18.5491 13.423 18.6159 13.4482 18.6759 13.4856C19.1148 13.7409 19.4805 14.105 19.7378 14.5428C19.9956 14.9817 20.1357 15.4797 20.1444 15.9887C20.1531 16.4976 20.0301 17.0002 19.7874 17.4476C19.5451 17.8941 19.1918 18.2706 18.7616 18.5407C18.6813 18.5941 18.5881 18.6248 18.4917 18.6296L18.4818 18.4299Z" fill="white"/>
<path d="M15.0325 21.2384C14.9152 21.2385 14.7991 21.2154 14.6907 21.1704C14.5824 21.1254 14.4841 21.0594 14.4014 20.9762L11.6233 18.6562H9.3389C9.10315 18.6562 8.87706 18.5625 8.71036 18.3958C8.54366 18.2291 8.45001 18.003 8.45001 17.7673V14.2117C8.45001 13.976 8.54366 13.7499 8.71036 13.5832C8.87706 13.4165 9.10315 13.3228 9.3389 13.3228H11.6589L14.3881 11.0384C14.5108 10.9092 14.6696 10.8199 14.8437 10.782C15.0179 10.7441 15.1994 10.7595 15.3647 10.8261C15.53 10.8927 15.6715 11.0075 15.7708 11.1555C15.87 11.3035 15.9225 11.478 15.9214 11.6562V20.3228C15.9214 20.4991 15.869 20.6714 15.7709 20.8178C15.6728 20.9642 15.5333 21.0781 15.3703 21.1451C15.265 21.1983 15.1502 21.23 15.0325 21.2384Z" fill="white"/>
</svg>
