<svg width="26" height="26" viewBox="0 0 26 26" fill="none" xmlns="http://www.w3.org/2000/svg">
<g filter="url(#filter0_d_10668_35152)">
<path d="M9.60914 2.30196C10.8444 1.58878 11.462 1.23219 12.1187 1.09262C12.6997 0.969127 13.3001 0.969127 13.8811 1.09262C14.5377 1.23219 15.1554 1.58878 16.3906 2.30196L19.7033 4.21451C20.9385 4.92769 21.5562 5.28428 22.0053 5.78315C22.4028 6.22456 22.703 6.74457 22.8866 7.30947C23.094 7.94791 23.094 8.66109 23.094 10.0875V13.9125C23.094 15.3389 23.094 16.0521 22.8866 16.6905C22.703 17.2554 22.4028 17.7754 22.0053 18.2168C21.5562 18.7157 20.9385 19.0723 19.7033 19.7855L16.3906 21.698C15.1554 22.4112 14.5377 22.7678 13.8811 22.9074C13.3001 23.0309 12.6997 23.0309 12.1187 22.9074C11.462 22.7678 10.8444 22.4112 9.60914 21.698L6.29651 19.7855C5.06124 19.0723 4.44361 18.7157 3.99442 18.2168C3.59698 17.7754 3.29675 17.2554 3.11321 16.6905C2.90576 16.0521 2.90576 15.3389 2.90576 13.9125V10.0875C2.90576 8.66109 2.90576 7.94791 3.11321 7.30947C3.29675 6.74457 3.59698 6.22456 3.99442 5.78315C4.44361 5.28428 5.06124 4.92769 6.29651 4.21451L9.60914 2.30196Z" fill="#00B0FF"/>
</g>
<defs>
<filter id="filter0_d_10668_35152" x="0.905762" y="0" width="24.1885" height="26" filterUnits="userSpaceOnUse" color-interpolation-filters="sRGB">
<feFlood flood-opacity="0" result="BackgroundImageFix"/>
<feColorMatrix in="SourceAlpha" type="matrix" values="0 0 0 0 0 0 0 0 0 0 0 0 0 0 0 0 0 0 127 0" result="hardAlpha"/>
<feOffset dy="1"/>
<feGaussianBlur stdDeviation="1"/>
<feComposite in2="hardAlpha" operator="out"/>
<feColorMatrix type="matrix" values="0 0 0 0 0 0 0 0 0 0 0 0 0 0 0 0 0 0 0.15 0"/>
<feBlend mode="normal" in2="BackgroundImageFix" result="effect1_dropShadow_10668_35152"/>
<feBlend mode="normal" in="SourceGraphic" in2="effect1_dropShadow_10668_35152" result="shape"/>
</filter>
</defs>
</svg>
