<svg width="24" height="25" viewBox="0 0 24 25" fill="none" xmlns="http://www.w3.org/2000/svg">
<path fill-rule="evenodd" clip-rule="evenodd" d="M14.4999 9.94638V7.42688L19.093 12.0199L14.4999 16.3234V13.6617L13.0123 13.5569C12.7165 13.5361 12.4259 13.5268 12.1412 13.5268C9.28183 13.5268 7.10449 14.5895 5.64318 15.6598C5.3224 15.8948 5.035 16.1308 4.78085 16.3572C5.2321 14.0528 6.47058 12.6587 7.84325 11.7594C9.6695 10.5631 11.8387 10.1884 13.0448 10.0787L14.4999 9.94638ZM3 18.3366C3.00002 18.5252 3.05928 18.709 3.16941 18.8621C3.27955 19.0152 3.43499 19.1298 3.61379 19.1898C3.79203 19.2499 3.98469 19.2525 4.16446 19.1971C4.34424 19.1417 4.50203 19.0311 4.61548 18.8811C4.61889 18.8767 4.62459 18.869 4.63259 18.8583C4.86893 18.5406 7.10878 15.5294 11.2999 15.1632C11.3423 15.1595 11.385 15.1561 11.4278 15.1529C11.6597 15.1358 11.8975 15.1268 12.1412 15.1268C12.3914 15.1268 12.6443 15.1349 12.8999 15.1529V17.9393C12.8995 18.1175 12.9521 18.2917 13.0509 18.44C13.1497 18.5882 13.2903 18.7038 13.4549 18.772C13.6196 18.8401 13.8007 18.8579 13.9754 18.8229C14.1501 18.788 14.3105 18.7019 14.4362 18.5756L20.7361 12.6729C20.8198 12.5894 20.8861 12.4903 20.9314 12.3811C20.9767 12.2719 21 12.1548 21 12.0367C21 11.9185 20.9767 11.8014 20.9314 11.6922C20.8861 11.583 20.8198 11.4839 20.7361 11.4004L14.4362 5.10042C14.3103 4.97459 14.15 4.88891 13.9754 4.8542C13.8009 4.81949 13.6199 4.83731 13.4555 4.90541C13.2911 4.97351 13.1505 5.08884 13.0516 5.23681C12.9527 5.38477 12.8999 5.55874 12.8999 5.73671V8.48529C10.2773 8.72378 3 10.1251 3 18.3366Z" fill="#686A6F"/>
</svg>
