<svg width="48" height="48" viewBox="0 0 48 48" fill="none" xmlns="http://www.w3.org/2000/svg">
<circle cx="24" cy="24" r="24" fill="#101820"/>
<circle cx="24" cy="24" r="23.5" stroke="black" stroke-opacity="0.1"/>
<rect width="24" height="24" transform="translate(12 12)" fill="#101820"/>
<path d="M24.7999 16.5106C24.7999 16.0688 24.4417 15.7106 23.9999 15.7106C23.5581 15.7106 23.1999 16.0688 23.1999 16.5106L23.1999 29.5579L18.762 25.12C18.4496 24.8076 17.943 24.8076 17.6306 25.12C17.3182 25.4324 17.3182 25.939 17.6306 26.2514L23.4343 32.0551C23.7467 32.3675 24.2532 32.3675 24.5657 32.0551L30.3693 26.2514C30.6818 25.939 30.6818 25.4324 30.3693 25.12C30.0569 24.8076 29.5504 24.8076 29.238 25.12L24.7999 29.5581L24.7999 16.5106Z" fill="#F2F2F2"/>
</svg>
