<svg width="37" height="36" viewBox="0 0 37 36" fill="none" xmlns="http://www.w3.org/2000/svg">
<g filter="url(#filter0_b_10492_24318)">
<circle cx="18.5" cy="18" r="18" fill="white" fill-opacity="0.16"/>
</g>
<path fill-rule="evenodd" clip-rule="evenodd" d="M21.4806 10.8338C21.2365 10.5897 20.8408 10.5897 20.5967 10.8338C20.3526 11.0779 20.3526 11.4736 20.5967 11.7177L21.7729 12.8939H15.3038C12.695 12.8939 10.5432 14.8504 10.2355 17.3761C10.1938 17.7187 10.4776 17.9999 10.8228 17.9999C11.168 17.9999 11.4425 17.7181 11.4978 17.3774C11.7954 15.5438 13.3861 14.1439 15.3038 14.1439H21.7116L20.5967 15.2588C20.3526 15.5029 20.3526 15.8986 20.5967 16.1427C20.8408 16.3867 21.2365 16.3867 21.4806 16.1427L23.6931 13.9302C23.9372 13.6861 23.9372 13.2904 23.6931 13.0463L21.4806 10.8338ZM21.6959 21.8559C23.6136 21.8559 25.2043 20.456 25.5019 18.6224C25.5572 18.2817 25.8317 17.9999 26.1769 17.9999C26.5221 17.9999 26.8059 18.2811 26.7642 18.6237C26.4565 21.1494 24.3047 23.1059 21.6959 23.1059H15.2267L16.403 24.2822C16.6471 24.5263 16.6471 24.922 16.403 25.1661C16.1589 25.4102 15.7632 25.4102 15.5191 25.1661L13.3066 22.9536C13.0626 22.7095 13.0626 22.3138 13.3066 22.0697L15.5191 19.8572C15.7632 19.6132 16.1589 19.6132 16.403 19.8572C16.6471 20.1013 16.6471 20.497 16.403 20.7411L15.2882 21.8559H21.6959Z" fill="white"/>
<defs>
<filter id="filter0_b_10492_24318" x="-39.5" y="-40" width="116" height="116" filterUnits="userSpaceOnUse" color-interpolation-filters="sRGB">
<feFlood flood-opacity="0" result="BackgroundImageFix"/>
<feGaussianBlur in="BackgroundImageFix" stdDeviation="20"/>
<feComposite in2="SourceAlpha" operator="in" result="effect1_backgroundBlur_10492_24318"/>
<feBlend mode="normal" in="SourceGraphic" in2="effect1_backgroundBlur_10492_24318" result="shape"/>
</filter>
</defs>
</svg>
